<svg width="593" height="705" viewBox="0 0 593 705" fill="none" xmlns="http://www.w3.org/2000/svg">
<path d="M401.052 0H-3V536.904C31.6447 537.599 188.363 537.343 309.007 431.507C429.651 325.671 466.297 155.514 401.052 0Z" fill="#46B9EA"/>
<path d="M403.475 278.859H178.746C172.824 278.859 168.006 284.58 168.006 291.606V676.091C167.764 679.197 168.756 682.273 170.766 684.652C172.776 687.032 175.643 688.524 178.746 688.805H403.475C406.577 688.524 409.444 687.032 411.454 684.652C413.464 682.273 414.456 679.197 414.214 676.091V291.606C414.214 284.58 409.396 278.859 403.475 278.859Z" fill="white" stroke="#3371A8" stroke-width="0.422336" stroke-miterlimit="10"/>
<path d="M394.207 305.123H188.013V668.195H394.207V305.123Z" fill="white" stroke="#3371A8" stroke-width="0.422336" stroke-miterlimit="10"/>
<path d="M219.864 303.919C219.864 313.956 226.923 322.554 235.89 322.554H346.297C355.264 322.554 362.189 313.989 362.323 303.919" fill="white"/>
<path d="M219.864 303.919C219.864 313.956 226.923 322.554 235.89 322.554H346.297C355.263 322.554 362.189 313.989 362.323 303.919" stroke="#3371A8" stroke-width="0.427941" stroke-linecap="round" stroke-linejoin="round"/>
<path d="M254.558 341.088H203.637V399.772H254.558V341.088Z" fill="white" stroke="#3371A8" stroke-width="0.422336" stroke-miterlimit="10"/>
<path d="M323.312 360.995H266.67V364.776H323.312V360.995Z" fill="#3371A8"/>
<path d="M379.988 374.378H266.67V378.158H379.988V374.378Z" fill="#3371A8"/>
<path d="M254.558 426.638H203.637V485.321H254.558V426.638Z" fill="white" stroke="#3371A8" stroke-width="0.422336" stroke-miterlimit="10"/>
<path d="M323.312 449.255H266.67V453.035H323.312V449.255Z" fill="#3371A8"/>
<path d="M379.988 462.637H266.67V466.418H379.988V462.637Z" fill="#3371A8"/>
<path d="M254.558 512.22H203.637V570.903H254.558V512.22Z" fill="white" stroke="#3371A8" stroke-width="0.422336" stroke-miterlimit="10"/>
<path d="M323.312 532.997H266.67V536.777H323.312V532.997Z" fill="#3371A8"/>
<path d="M379.988 546.346H266.67V550.127H379.988V546.346Z" fill="#3371A8"/>
<path d="M240.307 354.639L223.879 374.244L217.523 367.653L212.638 374.177L224.214 386.222L245.559 360.761L240.307 354.639Z" fill="#3BE2C2"/>
<path d="M240.307 440.188L223.879 459.827L217.523 453.202L212.638 459.76L224.214 471.771L245.559 446.31L240.307 440.188Z" fill="#3BE2C2"/>
<path d="M240.307 525.77L223.879 545.375L217.523 538.784L212.638 545.309L224.214 557.353L245.559 531.892L240.307 525.77Z" fill="#3BE2C2"/>
<path d="M254.558 597.769H203.637V656.452H254.558V597.769Z" fill="white" stroke="#3371A8" stroke-width="0.422336" stroke-miterlimit="10"/>
<path d="M323.312 616.973H266.67V620.753H323.312V616.973Z" fill="#3371A8"/>
<path d="M379.988 630.322H266.67V634.103H379.988V630.322Z" fill="#3371A8"/>
<path d="M495.414 674.284V691.448H504.715L507.558 665.485L495.414 674.284Z" fill="white" stroke="#3371A8" stroke-width="0.422336" stroke-miterlimit="10"/>
<path d="M455.166 670.671L453.627 692.318L443.523 692.418L444.861 666.054L455.166 670.671Z" fill="white" stroke="#3371A8" stroke-width="0.422336" stroke-miterlimit="10"/>
<path d="M522.681 499.473L510.871 501.481L512.444 498.905L457.943 501.314L441.649 580.305L438.303 675.556L455.032 676.359C455.032 676.359 469.92 601.784 466.641 583.785C466.173 581.208 482.935 524.666 482.935 524.666L488.857 523.797L493.474 674.352L511.172 675.055C511.172 675.055 519.938 615.736 516.793 565.919C515.455 542.365 522.681 499.473 522.681 499.473Z" fill="white" stroke="#3371A8" stroke-width="0.422336" stroke-miterlimit="10"/>
<path d="M455.835 406.664C456.37 404.69 462.76 376.152 465.872 372.572C468.773 368.61 472.846 365.661 477.515 364.141C480.413 363.627 483.386 363.718 486.247 364.408C488.651 364.79 490.999 365.464 493.239 366.416C498.133 368.657 501.978 372.694 503.979 377.691C505.05 380.267 509.165 377.088 509.7 379.865C511.139 386.925 509.232 402.047 508.195 409.274C507.969 411.522 507.018 413.636 505.485 415.296C503.444 417.337 483.57 420.281 477.682 419.277C472.429 418.408 454.062 413.389 455.835 406.664Z" fill="#455576"/>
<path d="M585.58 372.505C585.212 371.367 578.654 370.832 578.654 370.832C578.654 370.832 569.889 393.114 564.402 406.229C562.432 410.649 560.994 415.287 560.119 420.047L554.264 419.645C548.443 419.277 535.428 419.311 528.837 417.638C521.952 416.189 514.928 415.505 507.893 415.597L472.329 418.943L454.596 422.79L424.485 437.846C417.963 438.161 411.525 439.446 405.382 441.66L369.282 460.697L370.888 468.459C370.888 468.459 448.976 451.195 457.273 448.987L456.47 503.32H524.856L513.112 437.478C513.112 437.478 565.171 441.827 573.703 437.913C582.234 433.998 585.981 373.709 585.58 372.505Z" fill="#0099FF" stroke="#3371A8" stroke-width="0.418155" stroke-miterlimit="10"/>
<path d="M494.778 686.965C496.359 688.083 498.22 688.738 500.153 688.857C502.086 688.975 504.013 688.551 505.718 687.634C513.514 685.292 520.272 686.597 522.447 690.344C523.043 691.521 523.287 692.845 523.149 694.158C523.122 695.418 522.606 696.618 521.711 697.504C521.225 697.969 520.645 698.327 520.011 698.552C519.376 698.777 518.701 698.864 518.03 698.808C512.104 698.49 506.161 698.793 500.298 699.712C499.629 699.918 498.925 699.986 498.229 699.911C497.533 699.836 496.86 699.621 496.25 699.277C495.471 698.558 494.873 697.665 494.507 696.67C494.14 695.676 494.015 694.608 494.142 693.556C493.87 692.107 493.87 690.621 494.142 689.173C494.269 688.415 494.482 687.674 494.778 686.965Z" fill="white" stroke="#3371A8" stroke-width="0.422336" stroke-miterlimit="10"/>
<path d="M372.761 468.024C372.32 469.548 371.439 470.908 370.229 471.934C369.019 472.96 367.532 473.606 365.957 473.791C364.381 473.976 362.785 473.692 361.37 472.975C359.955 472.258 358.783 471.139 358.001 469.758C357.218 468.378 356.861 466.797 356.973 465.215C357.085 463.632 357.661 462.117 358.629 460.861C359.598 459.604 360.916 458.661 362.418 458.15C363.92 457.639 365.539 457.582 367.073 457.987C368.11 458.265 369.081 458.747 369.93 459.404C370.779 460.061 371.489 460.881 372.018 461.815C372.548 462.749 372.886 463.779 373.013 464.845C373.141 465.911 373.055 466.991 372.761 468.024Z" stroke="#0099FF" stroke-width="0.418155" stroke-miterlimit="10"/>
<path d="M426.593 684.857C427.109 683.592 428.091 682.574 429.337 682.013C434.991 679.236 443.255 686.061 443.891 686.597C445.627 688.103 447.848 688.935 450.147 688.939C451.659 688.904 453.14 688.502 454.463 687.768C454.463 688.738 454.463 690.243 454.731 692.117C454.931 694.86 455.065 695.463 454.731 696.065C454.217 697.328 453.227 698.338 451.975 698.876C450.723 699.414 449.309 699.438 448.039 698.942C443.732 698.114 439.542 696.766 435.56 694.927C433.452 693.939 431.407 692.822 429.437 691.582C428.363 690.857 427.522 689.835 427.017 688.641C426.512 687.448 426.365 686.133 426.593 684.857Z" fill="white" stroke="#3371A8" stroke-width="0.422336" stroke-miterlimit="10"/>
<path d="M583.807 358.921H581.298L581.632 355.375C581.674 354.634 581.428 353.906 580.946 353.342C580.464 352.778 579.782 352.423 579.044 352.349C578.306 352.276 577.568 352.49 576.984 352.948C576.4 353.406 576.016 354.071 575.911 354.806L574.907 364.843C574.84 365.41 574.84 365.982 574.907 366.549C574.958 367.49 575.196 368.411 575.607 369.259C576.018 370.107 576.594 370.865 577.301 371.488C578.008 372.111 578.832 372.587 579.725 372.888C580.618 373.189 581.562 373.308 582.502 373.24L585.011 373.04C585.979 373.025 586.934 372.813 587.817 372.416C588.699 372.019 589.491 371.446 590.144 370.731C590.797 370.017 591.296 369.176 591.612 368.261C591.928 367.346 592.053 366.376 591.98 365.411C591.907 364.446 591.637 363.506 591.187 362.649C590.737 361.793 590.116 361.037 589.363 360.429C588.61 359.821 587.74 359.374 586.808 359.114C585.875 358.855 584.9 358.789 583.941 358.921H583.807Z" fill="white" stroke="#0099FF" stroke-width="0.418155" stroke-miterlimit="10"/>
<path d="M346.097 411.85L343.32 390.839C343.272 390.42 343.33 389.995 343.488 389.604C343.646 389.213 343.898 388.867 344.223 388.597C344.554 388.337 344.944 388.163 345.359 388.093C345.775 388.023 346.201 388.058 346.598 388.196L363.327 393.984C363.763 394.127 364.149 394.393 364.44 394.748C364.73 395.104 364.913 395.535 364.966 395.991L366.706 409.106C366.748 409.429 366.726 409.758 366.642 410.072C366.557 410.387 366.411 410.681 366.212 410.939C366.013 411.197 365.765 411.413 365.482 411.575C365.2 411.737 364.888 411.842 364.565 411.883L348.84 413.958C348.521 414 348.198 413.979 347.887 413.896C347.577 413.813 347.286 413.669 347.031 413.473C346.776 413.277 346.562 413.033 346.402 412.755C346.242 412.476 346.138 412.169 346.097 411.85Z" fill="#0592E0" stroke="#0099FF" stroke-width="0.418155" stroke-miterlimit="10"/>
<path d="M353.691 390.672L346.465 388.196C346.067 388.058 345.641 388.023 345.225 388.093C344.81 388.163 344.42 388.337 344.089 388.597C343.764 388.867 343.512 389.213 343.354 389.604C343.196 389.995 343.139 390.42 343.186 390.839L345.963 411.85C346.004 412.172 346.109 412.482 346.271 412.763C346.433 413.044 346.65 413.29 346.909 413.487C347.167 413.683 347.462 413.825 347.777 413.906C348.091 413.987 348.418 414.005 348.74 413.958L356.602 412.92L353.691 390.672Z" fill="#0099FF" stroke="#0099FF" stroke-width="0.418155" stroke-miterlimit="10"/>
<path d="M359.914 678.533L330.974 458.957C330.461 455.444 330.739 451.861 331.786 448.469C332.834 445.077 334.625 441.962 337.03 439.351C339.053 437.239 340.576 434.699 341.485 431.919C342.395 429.14 342.667 426.191 342.283 423.292L340.844 412.518C340.802 412.197 340.824 411.871 340.909 411.559C340.995 411.246 341.141 410.954 341.34 410.699C341.54 410.443 341.788 410.23 342.07 410.072C342.352 409.913 342.664 409.812 342.985 409.775L369.215 406.429C369.538 406.387 369.867 406.409 370.181 406.494C370.496 406.579 370.79 406.725 371.048 406.924C371.306 407.123 371.522 407.37 371.684 407.653C371.846 407.936 371.951 408.247 371.992 408.571L373.431 419.411C373.859 422.278 374.903 425.019 376.491 427.445C378.079 429.871 380.174 431.924 382.631 433.462C385.604 435.391 388.122 437.943 390.011 440.941C391.9 443.939 393.115 447.312 393.572 450.826L422.545 670.403C423.058 674.285 422.801 678.23 421.788 682.012C420.776 685.795 419.029 689.341 416.646 692.448C414.263 695.554 411.291 698.161 407.9 700.12C404.509 702.078 400.766 703.349 396.884 703.86L393.338 704.328C389.448 704.835 385.498 704.569 381.711 703.547C377.925 702.524 374.377 700.764 371.273 698.367C368.168 695.971 365.566 692.986 363.617 689.582C361.668 686.179 360.41 682.424 359.914 678.533Z" fill="#9BD8F9" stroke="#3371A8" stroke-width="0.418155" stroke-miterlimit="10"/>
<path d="M403.007 702.221C398.475 703.769 393.709 704.516 388.921 704.429C382.698 704.202 376.681 702.141 371.624 698.507C365.854 694.283 361.85 688.075 360.383 681.076C351.684 614.363 343.007 547.651 334.353 480.938C333.928 477.932 334.1 474.872 334.859 471.933C335.618 468.994 336.95 466.233 338.777 463.809C340.604 461.385 342.892 459.346 345.508 457.807C348.125 456.268 351.019 455.26 354.026 454.841L369.55 452.7C372.554 452.271 375.614 452.44 378.553 453.198C381.491 453.955 384.251 455.287 386.674 457.115C389.096 458.943 391.133 461.233 392.667 463.851C394.201 466.47 395.202 469.366 395.613 472.373C404.691 539.152 413.735 605.943 422.746 672.745C423.064 679.128 421.314 685.443 417.758 690.753C414.203 696.062 409.029 700.084 403.007 702.221Z" fill="white" stroke="#3371A8" stroke-width="0.422336" stroke-miterlimit="10"/>
<path d="M395.177 702.555L393.37 702.823C385.957 703.873 378.43 701.936 372.445 697.437C366.459 692.939 362.505 686.247 361.453 678.834L359.278 664.147L418.798 655.415L420.604 668.128C421.376 672.117 421.326 676.222 420.458 680.191C419.589 684.161 417.92 687.911 415.552 691.213C413.121 694.406 410.057 697.062 406.55 699.014C403.044 700.966 399.172 702.171 395.177 702.555Z" fill="#0099FF" stroke="#0099FF" stroke-width="0.409733" stroke-miterlimit="10"/>
<path d="M497.79 418.875C495.822 420.668 493.406 421.893 490.797 422.422C487.439 423.053 483.966 422.509 480.961 420.883L479.455 408.169L496.184 406.162L497.79 418.875Z" fill="white" stroke="#3371A8" stroke-width="0.422336" stroke-miterlimit="10"/>
<path d="M493.072 363.136C487.828 361.59 482.184 362.186 477.38 364.796C472.575 367.405 469.002 371.814 467.444 377.055L465.37 384.047C463.833 389.287 464.435 394.921 467.043 399.718C469.652 404.515 474.055 408.083 479.288 409.641C484.523 411.168 490.149 410.561 494.939 407.954C499.728 405.346 503.29 400.949 504.849 395.723L506.923 388.698C508.462 383.471 507.868 377.848 505.273 373.059C502.677 368.269 498.29 364.701 493.072 363.136Z" fill="white" stroke="#455576" stroke-width="0.418155" stroke-miterlimit="10"/>
<path d="M510.169 378.527C510.017 376.033 509.251 373.616 507.937 371.49C506.624 369.365 504.804 367.599 502.641 366.349C502.261 366.143 501.835 366.04 501.403 366.048C500.801 363.739 497.79 362.702 495.213 361.732C491.017 360.076 486.484 359.457 481.998 359.925C479.151 360.463 476.44 361.566 474.027 363.169C471.613 364.773 469.546 366.843 467.946 369.259C465.2 373.19 463.686 377.848 463.597 382.642C469.277 383.034 474.982 382.855 480.626 382.107C486.314 381.355 491.654 378.946 495.983 375.181L497.489 373.809C497.943 376.831 498.917 379.751 500.366 382.441C502.671 386.472 505.42 390.231 508.563 393.649C509.896 388.725 510.438 383.621 510.169 378.527Z" fill="#455576"/>
<path d="M477.849 397.363L494.577 396.894C494.577 396.894 491.666 404.79 484.908 404.154C483.105 404.079 481.393 403.346 480.092 402.095C478.792 400.844 477.994 399.161 477.849 397.363Z" stroke="#455576" stroke-width="0.418155" stroke-miterlimit="10"/>
<path d="M496.385 390.671C497.826 390.671 498.994 389.503 498.994 388.062C498.994 386.621 497.826 385.452 496.385 385.452C494.943 385.452 493.775 386.621 493.775 388.062C493.775 389.503 494.943 390.671 496.385 390.671Z" fill="#455576"/>
<path d="M477.849 386.355C479.291 386.355 480.459 385.187 480.459 383.746C480.459 382.304 479.291 381.136 477.849 381.136C476.408 381.136 475.24 382.304 475.24 383.746C475.24 385.187 476.408 386.355 477.849 386.355Z" fill="#455576"/>
<path d="M240.307 611.319L223.879 630.958L217.523 624.334L212.638 630.858L224.214 642.902L245.559 617.441L240.307 611.319Z" fill="#3BE2C2"/>
<path d="M484.172 388.932C483.856 389.446 483.712 390.047 483.76 390.648C483.808 391.25 484.046 391.82 484.44 392.277C484.744 392.603 485.121 392.851 485.54 393.003C485.958 393.154 486.407 393.203 486.849 393.147" stroke="#455576" stroke-width="0.387698" stroke-linecap="round" stroke-linejoin="round"/>
<path d="M160.042 441.4L122.426 403.785L83.9827 442.228L121.598 479.844L160.042 441.4Z" stroke="white" stroke-width="0.858832" stroke-miterlimit="10"/>
<path d="M463.609 279.978L423.321 239.69L382.157 280.854L422.445 321.142L463.609 279.978Z" stroke="white" stroke-width="0.919752" stroke-miterlimit="10"/>
<path d="M175.868 400.575L81.6205 494.555" stroke="white" stroke-width="0.858832" stroke-miterlimit="10"/>
<path d="M332.647 265.275L368.044 229.61L455.768 318.873" stroke="white" stroke-width="0.914188" stroke-miterlimit="10"/>
</svg>
