<svg width="149" height="149" viewBox="0 0 149 149" fill="none" xmlns="http://www.w3.org/2000/svg">
<g filter="url(#filter0_dd_2673_1888)">
<rect x="3" y="2" width="143" height="143" rx="4" fill="#F4F4F4" shape-rendering="crispEdges"/>
<path d="M36.1099 85.0485C35.6095 84.6726 35.2088 84.18 34.9426 83.6137C34.6764 83.0473 34.5529 82.4244 34.5828 81.7993C34.5828 81.182 34.8428 80.6621 35.4926 80.6296C37.0847 80.6296 38.7418 80.6296 40.3013 80.6296V80.8896C40.4331 80.669 40.5524 80.4412 40.6587 80.2073C41.4385 78.7452 42.1533 77.218 42.9655 75.7559C43.3743 74.9414 44.0075 74.2608 44.7905 73.7945C45.5735 73.3282 46.4735 73.0955 47.3844 73.1241H61.908C62.8574 73.129 63.7853 73.4075 64.5805 73.9261C65.3757 74.4447 66.0046 75.1816 66.3919 76.0484C66.454 76.2105 66.5662 76.3483 66.7124 76.4418C66.8586 76.5354 67.031 76.5797 67.2041 76.5682H81.4028C81.6292 76.6012 81.8602 76.5586 82.0599 76.447C82.2597 76.3354 82.417 76.161 82.5075 75.9509C82.9246 75.0662 83.595 74.3251 84.4337 73.8219C85.2725 73.3186 86.2418 73.0758 87.2187 73.1241H101.19C102.202 73.0644 103.208 73.3157 104.074 73.8442C104.939 74.3727 105.622 75.1531 106.031 76.0808L108.371 80.6621H112.952C113.959 80.6621 114.317 81.0845 114.317 82.0592C114.304 82.653 114.157 83.2364 113.887 83.7654C113.617 84.2944 113.231 84.7552 112.757 85.1134C113.552 85.8897 114.107 86.8788 114.354 87.962C114.602 89.0453 114.533 90.177 114.154 91.2218C113.733 93.2399 113.569 95.3034 113.667 97.3627C113.667 98.554 113.667 99.7562 113.667 100.969C113.681 101.267 113.632 101.565 113.524 101.843C113.417 102.122 113.252 102.374 113.041 102.585C112.83 102.796 112.577 102.961 112.299 103.069C112.021 103.176 111.723 103.225 111.425 103.211H108.176C107.744 103.222 107.319 103.104 106.954 102.873C106.59 102.641 106.303 102.307 106.129 101.911C106.129 101.684 105.771 101.424 105.576 101.424C103.01 101.424 100.443 101.424 97.7784 101.424V107.922C97.7972 108.252 97.7464 108.581 97.629 108.889C97.5115 109.197 97.3303 109.477 97.0971 109.71C96.8639 109.944 96.584 110.125 96.2759 110.242C95.9677 110.36 95.6383 110.41 95.3091 110.392H92.06C90.208 110.392 89.7206 110.067 89.0058 108.345H63.4026C63.1788 108.296 62.9447 108.336 62.7504 108.458C62.5561 108.579 62.417 108.772 62.3629 108.995C62.2199 109.425 61.9382 109.796 61.5619 110.048C61.1855 110.301 60.7359 110.422 60.2835 110.392H56.3845C56.0679 110.405 55.752 110.353 55.4563 110.239C55.1606 110.125 54.8915 109.952 54.6659 109.729C54.4403 109.507 54.263 109.24 54.145 108.946C54.027 108.652 53.9709 108.337 53.9801 108.02C53.9801 106.038 53.9801 104.023 53.9801 102.041C53.9801 101.879 53.9801 101.684 53.9801 101.457H53.2979H43.8753C43.6826 101.424 43.4845 101.462 43.3174 101.563C43.1502 101.664 43.0253 101.823 42.9655 102.009C42.8183 102.407 42.545 102.746 42.1873 102.975C41.8295 103.204 41.4069 103.309 40.9836 103.276H37.7345C37.424 103.3 37.1119 103.257 36.8195 103.15C36.527 103.043 36.261 102.874 36.0392 102.656C35.8175 102.437 35.6452 102.173 35.5341 101.882C35.423 101.591 35.3756 101.28 35.3951 100.969C35.3951 99.4096 35.3951 97.7201 35.3951 96.258C35.3951 94.7959 35.1027 92.7164 34.8103 90.9943C34.4676 89.9785 34.4075 88.8887 34.6364 87.8414C34.8653 86.794 35.3747 85.8286 36.1099 85.0485ZM59.8285 88.7849H91.7676C90.1755 85.7632 88.7134 82.8065 87.0888 79.9148C86.7801 79.3898 86.33 78.9623 85.79 78.6808C85.2499 78.3993 84.6417 78.2752 84.0346 78.3227H67.529C66.9651 78.3034 66.405 78.4203 65.896 78.6635C65.3869 78.9067 64.944 79.269 64.6048 79.7198C64.094 80.3794 63.6479 81.0867 63.2726 81.8319C62.2329 83.8788 61.2257 85.9582 60.2184 88.0052C60.1534 88.2326 60.1535 88.4925 59.8285 88.7849ZM96.8686 95.2832C96.2513 95.7056 95.7315 96.063 95.2116 96.3555C94.6589 96.6511 94.083 96.9009 93.4896 97.1027C93.2767 97.142 93.08 97.2431 92.924 97.3933C92.768 97.5435 92.6596 97.7362 92.6123 97.9475C92.4219 98.6563 91.9971 99.2799 91.4071 99.7164C90.8171 100.153 90.0967 100.377 89.3631 100.352C88.6464 100.385 87.9391 100.179 87.3514 99.7679C86.7636 99.3565 86.3285 98.7621 86.114 98.0775C85.9191 97.5252 85.6266 97.4276 85.1068 97.4276H66.3268C66.1033 97.3891 65.8736 97.4386 65.6858 97.5659C65.498 97.6931 65.3667 97.888 65.3196 98.1099C65.1165 98.7358 64.7282 99.2852 64.2061 99.6855C63.6839 100.086 63.0525 100.318 62.3954 100.352C61.7815 100.459 61.1494 100.365 60.5932 100.084C60.037 99.8033 59.5864 99.3502 59.3087 98.7923C59.082 98.2591 58.7354 97.7853 58.2959 97.4077C57.8564 97.0302 57.3357 96.759 56.7744 96.6154C56.0185 96.2472 55.2909 95.8236 54.5975 95.3481C55.1498 98.5973 55.6696 101.652 56.2545 104.771C56.3357 105.377 56.6482 105.929 57.1266 106.31C57.6049 106.691 58.2121 106.873 58.8213 106.818H92.6448C93.215 106.863 93.7823 106.7 94.242 106.359C94.7017 106.019 95.023 105.524 95.1466 104.966C95.3233 104.315 95.4537 103.653 95.5366 102.984C95.894 100.352 96.4137 97.8175 96.8686 95.1857V95.2832ZM65.1246 77.3155C64.8747 76.6482 64.4328 76.0699 63.8546 75.6536C63.2763 75.2372 62.5876 75.0015 61.8755 74.9761C57.2293 74.9761 52.583 74.9761 47.9367 74.9761C47.1902 74.9318 46.4479 75.1165 45.8092 75.5055C45.1705 75.8946 44.6659 76.4694 44.3627 77.1531C43.323 79.2325 42.2833 81.3119 41.1136 83.3914C41.1136 83.5863 40.9511 83.8138 40.8211 84.1062H41.7634C47.4819 84.1062 53.2328 84.1062 58.9513 84.1062C59.4357 84.1881 59.9333 84.0872 60.3475 83.8231C60.7618 83.5589 61.0632 83.1503 61.1932 82.6766C61.8489 80.4649 63.2347 78.5408 65.1246 77.218V77.3155ZM92.6448 95.4781C94.0056 95.0597 95.2362 94.299 96.2189 93.2688C96.2828 93.208 96.3336 93.135 96.3684 93.054C96.4032 92.973 96.4211 92.8858 96.4211 92.7977C96.4211 92.7095 96.4032 92.6222 96.3684 92.5413C96.3336 92.4603 96.2828 92.3872 96.2189 92.3265C95.896 91.7045 95.3973 91.1912 94.785 90.8504C94.1726 90.5095 93.4736 90.3562 92.7748 90.4095H57.9116C57.2885 90.4198 56.6816 90.6091 56.1632 90.9548C55.6447 91.3004 55.2365 91.7879 54.9874 92.359C54.9305 92.4637 54.9007 92.581 54.9007 92.7002C54.9007 92.8194 54.9305 92.9366 54.9874 93.0413C55.913 94.2252 57.2037 95.0705 58.6589 95.4457L58.8213 95.1208C59.0117 94.4119 59.4366 93.7884 60.0266 93.3518C60.6166 92.9153 61.3369 92.6912 62.0705 92.7164C62.8083 92.693 63.5321 92.9217 64.1227 93.3646C64.7133 93.8076 65.1354 94.4383 65.3196 95.1532C65.5145 95.6731 65.807 95.6407 66.1644 95.6407H85.1393C85.2333 95.6594 85.3301 95.6589 85.424 95.6395C85.5178 95.62 85.6068 95.5818 85.6857 95.5272C85.7645 95.4727 85.8315 95.4029 85.8828 95.3219C85.934 95.2409 85.9685 95.1503 85.9841 95.0557C86.1867 94.359 86.6167 93.7501 87.2055 93.3262C87.7944 92.9022 88.5082 92.6875 89.2332 92.7164C90.0281 92.7317 90.795 93.0117 91.4129 93.5119C92.0308 94.0121 92.4643 94.7039 92.6448 95.4781ZM107.883 83.9438C107.894 83.8575 107.894 83.7701 107.883 83.6838C106.681 81.3119 105.479 78.8751 104.212 76.5032C103.984 76.0249 103.624 75.6211 103.176 75.3392C102.727 75.0573 102.207 74.9089 101.677 74.9112H86.5364C85.9878 74.952 85.4586 75.1314 84.9983 75.4325C84.538 75.7337 84.1617 76.1469 83.9046 76.6332C85.1453 76.7275 86.33 77.1886 87.3078 77.9581C88.2857 78.7277 89.0124 79.7707 89.3957 80.9545C89.7531 81.7668 90.2404 82.5141 90.5978 83.3264C90.6642 83.5348 90.8011 83.7136 90.9848 83.8321C91.1686 83.9507 91.3878 84.0016 91.605 83.9762H107.851L107.883 83.9438ZM36.0449 90.0521C36.4998 92.6839 36.9222 95.3807 37.4421 98.0775C37.5059 98.5367 37.7366 98.9562 38.0903 99.2559C38.4439 99.5556 38.8957 99.7145 39.3591 99.7021H53.6552L53.4278 98.4349H47.9367C47.027 98.4349 46.7021 97.9475 47.0595 97.1027C47.4169 96.2579 47.5794 95.9006 47.8068 95.3157C48.0445 94.6689 48.4492 94.0965 48.98 93.657C49.5108 93.2176 50.1487 92.9266 50.8285 92.8138C51.5806 92.6867 52.3404 92.6108 53.1028 92.5865L53.3953 91.6767H46.0197C45.8573 91.6767 45.5974 91.9366 45.5324 92.1315C45.2689 92.7202 44.8361 93.2172 44.2893 93.5591C43.7424 93.901 43.1062 94.0724 42.4615 94.0515C41.8169 94.0306 41.1931 93.8183 40.6695 93.4417C40.1459 93.0651 39.7463 92.5411 39.5215 91.9366C39.4955 91.8321 39.4472 91.7344 39.3799 91.6502C39.3126 91.5661 39.2279 91.4976 39.1316 91.4493L36.0449 90.0521ZM112.627 90.0521C111.717 90.507 110.84 90.9619 109.93 91.3518C109.735 91.4009 109.556 91.498 109.409 91.6342C109.261 91.7704 109.15 91.9413 109.085 92.1315C108.806 92.88 108.26 93.4991 107.553 93.8707C106.846 94.2423 106.026 94.3403 105.251 94.146C104.704 93.9759 104.211 93.6639 103.823 93.2416C103.435 92.8193 103.165 92.3018 103.042 91.7417H97.9409C97.9918 92.0865 98.1285 92.4131 98.3386 92.6913C98.5487 92.9695 98.8253 93.1904 99.1431 93.3337C99.7957 93.7917 100.348 94.3775 100.768 95.0557C101.112 95.7032 101.406 96.3768 101.645 97.0703C102.002 97.9475 101.645 98.4349 100.735 98.4674H97.8759L97.6809 99.6695H98.1033H109.248C109.73 99.6893 110.202 99.5263 110.57 99.213C110.937 98.8998 111.173 98.4595 111.23 97.98C111.88 95.3807 112.302 92.7164 112.757 90.0521H112.627ZM39.2616 90.0521L39.554 89.5972C39.7573 88.9696 40.1583 88.4247 40.6972 88.044C41.236 87.6632 41.8836 87.4672 42.5431 87.4853C43.1997 87.4988 43.8369 87.7109 44.3705 88.0937C44.9041 88.4765 45.3092 89.0121 45.5324 89.6297C45.608 89.7433 45.709 89.8377 45.8275 89.9054C45.9459 89.9731 46.0785 90.0122 46.2147 90.0196H53.2003C54.0262 90.132 54.8638 89.9226 55.5397 89.4348C55.8963 89.2086 56.2937 89.054 56.7094 88.9799C56.9368 88.9799 57.2943 88.9799 57.4242 88.72C58.139 87.7453 58.7889 86.738 59.4712 85.6983H59.2437H38.7742C38.2848 85.7099 37.8071 85.8514 37.3903 86.1083C36.9735 86.3653 36.6326 86.7283 36.4023 87.1604C36.3276 87.2213 36.2674 87.2982 36.226 87.3853C36.1847 87.4724 36.1632 87.5676 36.1632 87.664C36.1632 87.7604 36.1847 87.8556 36.226 87.9427C36.2674 88.0298 36.3276 88.1067 36.4023 88.1676L39.2616 90.0521ZM91.8325 85.6983C92.1574 86.3806 92.5148 86.9654 92.7423 87.5828C92.8453 88.0122 93.0911 88.3939 93.4393 88.6655C93.7876 88.937 94.2177 89.0822 94.6592 89.0773C94.9433 89.0912 95.2159 89.1934 95.439 89.3698C96.3961 90.0015 97.5577 90.2455 98.6881 90.0521C99.8578 90.0521 101.028 90.0521 102.197 90.0521C102.432 90.087 102.672 90.0376 102.874 89.9127C103.076 89.7879 103.228 89.5955 103.302 89.3698C103.546 88.885 103.908 88.4692 104.354 88.1602C104.8 87.8511 105.316 87.6587 105.856 87.6005C106.395 87.5424 106.941 87.6203 107.443 87.8272C107.944 88.0341 108.386 88.3634 108.728 88.7849C108.942 89.1204 109.137 89.4675 109.313 89.8247C110.505 89.5016 111.563 88.8074 112.335 87.8427C112.416 87.6449 112.416 87.4231 112.335 87.2253C112.079 86.7178 111.683 86.2947 111.193 86.0066C110.703 85.7185 110.141 85.5775 109.573 85.6008H92.6448L91.8325 85.6983ZM87.3487 96.5828C87.3264 96.8452 87.3584 97.1094 87.4426 97.3588C87.5268 97.6083 87.6615 97.8377 87.8383 98.0328C88.0151 98.2279 88.2303 98.3845 88.4702 98.4928C88.7102 98.6011 88.97 98.6588 89.2332 98.6623C89.7524 98.5981 90.2301 98.3462 90.5765 97.9543C90.9229 97.5623 91.1141 97.0573 91.1141 96.5341C91.1141 96.011 90.9229 95.5059 90.5765 95.1139C90.2301 94.722 89.7524 94.4702 89.2332 94.406C88.7186 94.4634 88.2468 94.7199 87.9189 95.1207C87.591 95.5215 87.4331 96.0346 87.4787 96.5504L87.3487 96.5828ZM60.1535 96.5828C60.1313 96.8442 60.1622 97.1073 60.2441 97.3564C60.326 97.6056 60.4573 97.8356 60.6302 98.0328C60.8031 98.23 61.0141 98.3902 61.2504 98.504C61.4867 98.6177 61.7435 98.6827 62.0055 98.6948C62.5247 98.6306 63.0023 98.3787 63.3488 97.9868C63.6952 97.5948 63.8865 97.0897 63.8865 96.5666C63.8865 96.0435 63.6952 95.5384 63.3488 95.1465C63.0023 94.7545 62.5247 94.5027 62.0055 94.4384C61.7465 94.4508 61.4925 94.5148 61.2585 94.6265C61.0245 94.7382 60.8152 94.8955 60.6427 95.0892C60.4702 95.2828 60.3381 95.5089 60.2541 95.7542C60.1701 95.9995 60.1359 96.2592 60.1535 96.5179V96.5828ZM43.9078 90.8969C43.9301 90.6765 43.908 90.4541 43.8429 90.2424C43.7777 90.0308 43.6708 89.8343 43.5285 89.6646C43.3861 89.495 43.2112 89.3557 43.014 89.2548C42.8169 89.154 42.6016 89.0936 42.3807 89.0773C41.9441 89.1361 41.5436 89.3513 41.2536 89.6829C40.9636 90.0145 40.8039 90.4401 40.8039 90.8806C40.8039 91.3211 40.9636 91.7468 41.2536 92.0784C41.5436 92.41 41.9441 92.6252 42.3807 92.6839C42.6199 92.7149 42.8631 92.6911 43.0918 92.6144C43.3205 92.5377 43.5287 92.4101 43.7008 92.2411C43.8729 92.0721 44.0044 91.8663 44.0853 91.639C44.1662 91.4118 44.1943 91.1691 44.1677 90.9294L43.9078 90.8969ZM104.472 90.8969C104.449 91.1192 104.473 91.3438 104.543 91.5561C104.613 91.7685 104.726 91.9638 104.876 92.1293C105.027 92.2948 105.21 92.4268 105.414 92.5168C105.619 92.6067 105.84 92.6526 106.064 92.6514C106.5 92.6101 106.904 92.4005 107.189 92.067C107.474 91.7335 107.618 91.3023 107.591 90.8644C107.609 90.6415 107.581 90.4173 107.51 90.2053C107.438 89.9934 107.325 89.798 107.176 89.631C107.027 89.4641 106.846 89.329 106.644 89.2338C106.442 89.1387 106.222 89.0854 105.999 89.0773C105.59 89.1638 105.23 89.4045 104.994 89.7494C104.758 90.0943 104.664 90.5169 104.732 90.9294L104.472 90.8969ZM48.8465 96.7778H52.9729L52.6155 94.406C52.2309 94.321 51.8331 94.3146 51.446 94.3871C51.0589 94.4597 50.6904 94.6098 50.3627 94.8283C50.0349 95.0468 49.7547 95.3292 49.5389 95.6586C49.323 95.988 49.176 96.3577 49.1065 96.7453L48.8465 96.7778ZM35.8499 82.4492C35.8732 82.8552 36.045 83.2385 36.3326 83.5261C36.6202 83.8137 37.0035 83.9855 37.4096 84.0087C38.4493 84.0087 38.6118 84.0088 39.1641 82.4492H35.8499ZM108.89 82.4492C109.573 84.0738 109.703 84.2037 110.775 84.0087C111.163 83.969 111.523 83.7882 111.786 83.5007C112.05 83.2133 112.199 82.8391 112.205 82.4492H108.89ZM90.5004 108.442V108.702C90.7601 108.718 91.0204 108.718 91.2801 108.702H94.2368C95.634 108.702 95.8614 108.377 95.6015 106.818C94.5943 108.572 92.6448 108.312 90.9228 108.377L90.5004 108.442ZM55.0523 106.883C55.0523 107.175 55.0523 107.305 55.0523 107.467C55.0523 108.702 55.0524 108.865 56.417 108.865H59.4712C59.7473 108.842 60.0198 108.787 60.2835 108.702V108.442C59.411 108.56 58.5231 108.474 57.689 108.193C56.8549 107.911 56.0971 107.44 55.4747 106.818L55.0523 106.883ZM98.4282 94.8608H98.1358L97.8759 96.7453H99.5329L98.4282 94.8608ZM40.4638 101.619C39.7246 101.676 38.9816 101.579 38.2822 101.333C37.5829 101.087 36.9426 100.697 36.4023 100.189C36.4023 101.554 36.4023 101.619 37.572 101.619H40.4638ZM107.591 101.619H110.612C111.62 101.619 111.815 101.392 111.555 100.287C110.905 101.489 109.443 101.392 108.013 101.554L107.591 101.619Z" fill="black" stroke="black" stroke-width="0.25" stroke-miterlimit="10"/>
<path d="M61.2261 62.1747C60.8362 61.2649 60.5438 60.4526 60.1864 59.6729C60.1178 59.564 60.0276 59.4704 59.9215 59.3978C59.8153 59.3252 59.6953 59.275 59.5691 59.2505C58.9517 59.2505 58.3018 59.2505 57.6845 59.2505C57.4684 59.2505 57.2545 59.2074 57.0553 59.1237C56.856 59.0401 56.6755 58.9175 56.5242 58.7632C56.3729 58.6089 56.2539 58.426 56.1742 58.2251C56.0945 58.0242 56.0556 57.8094 56.0599 57.5934C56.0599 55.8713 56.0599 54.1169 56.0599 52.3948C56.0508 52.1705 56.0882 51.9467 56.1699 51.7375C56.2516 51.5284 56.3757 51.3384 56.5344 51.1797C56.6932 51.0209 56.8831 50.8968 57.0923 50.8152C57.3014 50.7335 57.5252 50.6961 57.7496 50.7052H59.4716C59.648 50.7336 59.8285 50.6916 59.9743 50.5883C60.1201 50.485 60.2196 50.3288 60.2514 50.1529C60.4527 49.5279 60.7026 48.9195 60.9987 48.3334C61.052 48.2602 61.0894 48.1766 61.1086 48.088C61.1277 47.9994 61.1281 47.9078 61.1097 47.8191C61.0914 47.7304 61.0547 47.6464 61.002 47.5727C60.9493 47.499 60.8818 47.4372 60.8038 47.3911C60.4139 47.0446 60.0239 46.6546 59.634 46.2214C59.4611 46.069 59.3227 45.8815 59.2279 45.6714C59.133 45.4613 59.084 45.2335 59.084 45.003C59.084 44.7725 59.133 44.5446 59.2279 44.3346C59.3227 44.1245 59.4611 43.937 59.634 43.7846C60.8037 42.5499 62.0059 41.3478 63.2406 40.1781C63.3987 40.0089 63.5898 39.8739 63.8022 39.7816C64.0146 39.6894 64.2436 39.6418 64.4752 39.6418C64.7067 39.6418 64.9359 39.6894 65.1483 39.7816C65.3606 39.8739 65.5518 40.0089 65.7099 40.1781C66.2297 40.6979 66.7172 41.2502 67.2045 41.7701C68.1468 41.3802 69.024 41.0553 69.8688 40.6654C69.9574 40.6105 70.0308 40.534 70.0819 40.4431C70.1331 40.3522 70.1603 40.2498 70.1612 40.1455C70.1612 39.5282 70.1612 38.8784 70.1612 38.2611C70.1612 37.8216 70.3358 37.4001 70.6465 37.0894C70.9573 36.7786 71.3788 36.604 71.8183 36.604H77.0818C77.2937 36.604 77.5034 36.6462 77.6987 36.7282C77.894 36.8103 78.071 36.9304 78.2192 37.0817C78.3675 37.233 78.4842 37.4124 78.5622 37.6093C78.6403 37.8063 78.6783 38.0168 78.674 38.2286C78.674 38.8459 78.674 39.4633 78.674 40.0806C78.6945 40.2083 78.743 40.3298 78.8161 40.4366C78.8891 40.5433 78.9847 40.6325 79.0963 40.6979C79.8761 41.0878 80.7209 41.3802 81.6956 41.8026C82.118 41.3153 82.5729 40.7629 83.0602 40.2755C83.2219 40.084 83.4234 39.9302 83.6507 39.8246C83.878 39.719 84.1255 39.6642 84.3761 39.6642C84.6267 39.6642 84.8744 39.719 85.1016 39.8246C85.3289 39.9302 85.5304 40.084 85.692 40.2755C86.8617 41.3802 87.999 42.5499 89.1362 43.7196C89.3315 43.8681 89.4897 44.0598 89.5986 44.2796C89.7076 44.4995 89.7643 44.7414 89.7643 44.9867C89.7643 45.2321 89.7076 45.4741 89.5986 45.6939C89.4897 45.9137 89.3315 46.1054 89.1362 46.2539C88.8397 46.4243 88.5829 46.656 88.3831 46.9334C88.1832 47.2109 88.0449 47.5277 87.9773 47.8629C87.9096 48.1981 87.9142 48.5438 87.9907 48.8771C88.0673 49.2103 88.2142 49.5234 88.4214 49.7955C88.5275 50.0915 88.7283 50.3442 88.9926 50.5145C89.2569 50.6849 89.57 50.7634 89.8834 50.7377C92.5152 50.7377 92.8076 50.9976 92.8076 53.6294V57.3984C92.8076 58.6006 92.1254 59.3804 90.9557 59.2179C90.6301 59.132 90.2899 59.1164 89.9578 59.1721C89.6257 59.2278 89.3093 59.3536 89.0296 59.5411C88.7499 59.7286 88.5133 59.9735 88.3356 60.2596C88.1579 60.5456 88.0432 60.8661 87.999 61.2C87.7715 61.9797 87.7715 62.3696 88.3563 62.922C90.2733 64.7415 90.2408 65.1964 88.3563 67.0809L85.7896 69.6477C85.6336 69.869 85.4267 70.0494 85.1864 70.174C84.9461 70.2986 84.6793 70.3637 84.4086 70.3637C84.1379 70.3637 83.8712 70.2986 83.6309 70.174C83.3906 70.0494 83.1838 69.869 83.0278 69.6477C82.8773 69.37 82.6682 69.1283 82.4149 68.9394C82.1617 68.7506 81.8703 68.6192 81.5612 68.5543C81.252 68.4894 80.9325 68.4926 80.6247 68.5635C80.3169 68.6345 80.0282 68.7716 79.7787 68.9653C78.7065 69.5827 78.6415 69.4528 78.6415 70.7524C78.6415 71.0773 78.6415 71.4347 78.6415 71.7596C78.6502 71.9698 78.6163 72.1796 78.5419 72.3764C78.4675 72.5732 78.3539 72.7529 78.2082 72.9047C78.0625 73.0565 77.8877 73.1771 77.6941 73.2596C77.5005 73.342 77.2922 73.3844 77.0818 73.3842C75.284 73.3842 73.497 73.3842 71.7208 73.3842C71.5048 73.3891 71.2902 73.3491 71.0905 73.2667C70.8907 73.1843 70.7102 73.0613 70.5606 72.9055C70.4109 72.7497 70.2952 72.5646 70.2209 72.3617C70.1465 72.1589 70.1152 71.9427 70.1287 71.7271C70.1287 70.9798 70.3237 70.0376 70.1287 69.5177C69.9338 68.9979 68.7966 68.9654 68.1792 68.608C67.5619 68.2506 67.2045 68.348 66.7496 68.8679C64.9626 70.9148 64.1503 70.8173 62.3958 68.8679L59.894 66.3661C59.6786 66.2024 59.5038 65.9911 59.3835 65.7487C59.2633 65.5063 59.2007 65.2395 59.2007 64.969C59.2007 64.6984 59.2633 64.4315 59.3835 64.1891C59.5038 63.9467 59.6786 63.7354 59.894 63.5718L61.2261 62.1747ZM71.7857 38.196C71.7857 39.1383 71.7857 40.0156 71.7857 40.8604C71.8155 41.1426 71.7387 41.4257 71.5704 41.6541C71.402 41.8825 71.1543 42.0399 70.876 42.095C69.8334 42.4558 68.8135 42.8789 67.8218 43.3622C67.5955 43.5193 67.3175 43.5835 67.0453 43.5411C66.7731 43.4988 66.5276 43.3533 66.3597 43.1348L64.6377 41.2178L60.7712 45.0843L62.6233 46.9038C62.8418 47.0716 62.9872 47.317 63.0296 47.5893C63.0719 47.8615 63.0078 48.1396 62.8506 48.3658C62.3619 49.3439 61.9386 50.3534 61.5835 51.3875C61.5355 51.6695 61.3801 51.9219 61.1498 52.0916C60.9195 52.2613 60.6324 52.335 60.3488 52.2973H57.717V57.6259H60.4138C60.6776 57.6031 60.941 57.6759 61.1557 57.8309C61.3704 57.986 61.5222 58.2131 61.5835 58.4707C61.9734 59.5104 62.3633 60.5501 62.8506 61.5573C63.0098 61.7887 63.0749 62.072 63.0327 62.3497C62.9904 62.6273 62.844 62.8784 62.6233 63.052L60.7063 64.8064L64.5402 68.738C65.1576 68.0881 65.7749 67.4707 66.3272 66.8209C66.5075 66.5903 66.7678 66.4357 67.0565 66.3876C67.3452 66.3395 67.6415 66.4013 67.8868 66.561C68.8649 67.0497 69.8744 67.4731 70.9085 67.8282C71.191 67.8835 71.4407 68.0469 71.6046 68.2835C71.7684 68.5202 71.8334 68.8114 71.7857 69.0953C71.7857 69.9401 71.7857 70.8173 71.7857 71.6946H77.1144C77.1144 70.7848 77.1144 69.9076 77.1144 69.0628C77.1144 68.218 77.4068 68.0556 78.0566 67.8282C79.045 67.4891 80.0108 67.0875 80.9483 66.6259C81.0714 66.5304 81.2123 66.4604 81.3628 66.4201C81.5133 66.3798 81.6704 66.3699 81.8247 66.391C81.9791 66.4122 82.1277 66.4641 82.2617 66.5434C82.3958 66.6228 82.5126 66.7282 82.6054 66.8534L84.23 68.7054L88.1939 64.774L86.3094 63.0844C86.139 62.8981 86.0317 62.6629 86.0026 62.4121C85.9734 62.1614 86.0239 61.9077 86.1469 61.6873C86.6357 60.7092 87.059 59.6998 87.4141 58.6656C87.462 58.3922 87.614 58.148 87.8382 57.9844C88.0624 57.8208 88.3413 57.7505 88.6163 57.7883H91.2481V52.4598H88.6163C88.3426 52.4896 88.0676 52.4162 87.8453 52.2539C87.6229 52.0917 87.4692 51.8523 87.4141 51.5826C87.0532 50.5507 86.63 49.5415 86.1469 48.5608C85.9857 48.3243 85.9197 48.0358 85.9618 47.7528C86.004 47.4697 86.1513 47.2129 86.3744 47.0337C87.0242 46.4164 87.609 45.7666 88.1289 45.2467L84.36 41.4452L82.7354 43.1672C82.642 43.3055 82.5208 43.4228 82.3796 43.5117C82.2384 43.6006 82.0803 43.6591 81.9153 43.6835C81.7502 43.708 81.582 43.6978 81.4211 43.6537C81.2602 43.6095 81.1103 43.5324 80.9808 43.4272C80.1044 42.9487 79.1783 42.5674 78.219 42.29C78.0527 42.2667 77.893 42.2096 77.7494 42.1224C77.6059 42.0352 77.4817 41.9197 77.3844 41.7828C77.287 41.6459 77.2186 41.4907 77.1834 41.3265C77.1481 41.1623 77.1467 40.9926 77.1793 40.8278C77.1793 40.0156 77.1793 39.2033 77.1793 38.3586L71.7857 38.196Z" fill="black" stroke="black" stroke-width="0.25" stroke-miterlimit="10"/>
<path d="M75.749 105.031H68.3735C67.3013 105.031 66.9764 104.576 67.3988 103.601C67.8212 102.626 67.9511 102.237 68.2435 101.587C68.5215 100.786 69.0377 100.089 69.723 99.5893C70.4082 99.0899 71.2298 98.8119 72.0775 98.7925C74.5334 98.63 76.9972 98.63 79.453 98.7925C80.2946 98.8183 81.1092 99.095 81.7923 99.5871C82.4755 100.079 82.9959 100.764 83.287 101.554L84.1643 103.666C84.5217 104.543 84.1643 105.031 83.287 105.031H75.749ZM82.2472 103.374C81.6624 101.132 80.6552 100.32 78.5108 100.32H73.0197C72.58 100.27 72.1348 100.311 71.7115 100.44C71.2881 100.569 70.8956 100.783 70.5579 101.069C70.2202 101.355 69.9445 101.707 69.7477 102.103C69.5509 102.5 69.437 102.932 69.4132 103.374H82.2472Z" fill="black" stroke="black" stroke-width="0.25" stroke-miterlimit="10"/>
<path d="M74.4822 45.6364C75.7214 45.6186 76.9516 45.8507 78.0992 46.3188C79.2468 46.7868 80.2883 47.4814 81.1616 48.3608C82.0349 49.2402 82.7222 50.2865 83.1823 51.4373C83.6424 52.5881 83.866 53.8197 83.8397 55.0588C83.8397 57.5492 82.8504 59.9376 81.0894 61.6986C79.3285 63.4596 76.94 64.4489 74.4497 64.4489C71.9593 64.4489 69.571 63.4596 67.81 61.6986C66.049 59.9376 65.0597 57.5492 65.0597 55.0588C65.0331 53.8142 65.2587 52.577 65.7228 51.4218C66.1869 50.2666 66.8799 49.2173 67.7602 48.337C68.6405 47.4567 69.69 46.7635 70.8452 46.2994C72.0004 45.8353 73.2375 45.6098 74.4822 45.6364ZM74.4822 62.6618C75.5065 62.6884 76.5254 62.5069 77.4775 62.1281C78.4295 61.7494 79.2948 61.1813 80.0208 60.4583C80.7469 59.7353 81.3185 58.8724 81.7013 57.922C82.0841 56.9715 82.2699 55.9533 82.2476 54.929C82.2476 52.878 81.4328 50.9111 79.9826 49.4609C78.5324 48.0107 76.5656 47.196 74.5147 47.196C72.4638 47.196 70.4969 48.0107 69.0467 49.4609C67.5965 50.9111 66.7818 52.878 66.7818 54.929C66.76 55.9422 66.9418 56.9495 67.3166 57.8911C67.6914 58.8328 68.2514 59.6896 68.9635 60.4108C69.6756 61.1319 70.5252 61.7028 71.462 62.0895C72.3988 62.4762 73.4038 62.6707 74.4172 62.6618H74.4822Z" fill="black" stroke="black" stroke-width="0.25" stroke-miterlimit="10"/>
</g>
<defs>
<filter id="filter0_dd_2673_1888" x="0" y="0" width="149" height="149" filterUnits="userSpaceOnUse" color-interpolation-filters="sRGB">
<feFlood flood-opacity="0" result="BackgroundImageFix"/>
<feColorMatrix in="SourceAlpha" type="matrix" values="0 0 0 0 0 0 0 0 0 0 0 0 0 0 0 0 0 0 127 0" result="hardAlpha"/>
<feOffset dy="1"/>
<feGaussianBlur stdDeviation="1.5"/>
<feComposite in2="hardAlpha" operator="out"/>
<feColorMatrix type="matrix" values="0 0 0 0 0 0 0 0 0 0 0 0 0 0 0 0 0 0 0.1 0"/>
<feBlend mode="normal" in2="BackgroundImageFix" result="effect1_dropShadow_2673_1888"/>
<feColorMatrix in="SourceAlpha" type="matrix" values="0 0 0 0 0 0 0 0 0 0 0 0 0 0 0 0 0 0 127 0" result="hardAlpha"/>
<feOffset dy="1"/>
<feGaussianBlur stdDeviation="1"/>
<feComposite in2="hardAlpha" operator="out"/>
<feColorMatrix type="matrix" values="0 0 0 0 0 0 0 0 0 0 0 0 0 0 0 0 0 0 0.06 0"/>
<feBlend mode="normal" in2="effect1_dropShadow_2673_1888" result="effect2_dropShadow_2673_1888"/>
<feBlend mode="normal" in="SourceGraphic" in2="effect2_dropShadow_2673_1888" result="shape"/>
</filter>
</defs>
</svg>
