<svg width="149" height="149" viewBox="0 0 149 149" fill="none" xmlns="http://www.w3.org/2000/svg">
<g filter="url(#filter0_dd_2673_1934)">
<rect x="3" y="2" width="143" height="143" rx="4" fill="#F4F4F4" shape-rendering="crispEdges"/>
<path d="M110.94 75.634C113.354 76.486 114.49 77.622 114.49 79.5035C114.478 80.2224 114.317 80.9308 114.017 81.5844C113.718 82.2381 113.287 82.8228 112.751 83.302C107.319 88.5205 101.817 93.7035 96.4564 98.993C94.9111 100.544 92.8237 101.435 90.6344 101.478C83.5344 101.727 76.4344 102.046 69.1214 102.366C68.4227 102.409 67.7373 102.577 67.0979 102.863L62.1989 105.525C61.9901 105.591 61.8146 105.734 61.7089 105.926C61.6031 106.118 61.5752 106.343 61.6309 106.554C61.6707 107.181 61.5439 107.806 61.2633 108.368C60.9827 108.929 60.5583 109.406 60.0335 109.749C57.3 111.631 54.5664 113.548 51.7974 115.394C51.3976 115.69 50.9428 115.905 50.4596 116.024C49.9763 116.144 49.4742 116.166 48.9822 116.09C48.4902 116.014 48.0182 115.841 47.5935 115.582C47.1688 115.322 46.7999 114.981 46.508 114.577L35.3965 100.377C35.0505 99.9882 34.7944 99.5275 34.6464 99.0282C34.4983 98.5288 34.4621 98.0031 34.54 97.4881C34.6179 96.9732 34.8081 96.4817 35.0973 96.0485C35.3864 95.6153 35.7674 95.251 36.213 94.9815L43.81 89.7275C44.2965 89.3167 44.864 89.0128 45.4755 88.8355C46.0871 88.6581 46.7291 88.6113 47.3599 88.698C47.5953 88.3133 47.7197 87.871 47.7197 87.42C47.7197 86.969 47.5953 86.5268 47.3599 86.142C45.7587 83.4063 44.5629 80.4527 43.81 77.3735C43.6566 76.8837 43.3443 76.459 42.9225 76.1665C41.751 75.421 40.544 74.7465 39.3725 74.1075C39.0568 73.9537 38.7939 73.7096 38.6169 73.4063C38.44 73.103 38.357 72.754 38.3785 72.4035C38.3785 70.2025 38.3785 67.966 38.3785 65.765C38.3521 65.4137 38.433 65.0628 38.6105 64.7585C38.788 64.4542 39.0537 64.211 39.3725 64.061C40.5795 63.3865 41.822 62.6766 42.9225 61.9311C43.2986 61.6776 43.5747 61.301 43.7035 60.8661C44.556 57.6407 45.8459 54.5471 47.5374 51.6715C47.6602 51.2786 47.6602 50.8575 47.5374 50.4646C47.2179 49.0801 46.8275 47.7311 46.4725 46.3821C46.3257 46.0363 46.2949 45.6524 46.3845 45.2877C46.4741 44.9229 46.6793 44.597 46.9695 44.3586C48.5315 42.8321 50.0934 41.2346 51.6554 39.6726C51.8725 39.4176 52.1613 39.2339 52.4842 39.1453C52.8071 39.0566 53.1491 39.0672 53.4659 39.1756C54.8149 39.6016 56.1639 39.9566 57.5484 40.2761C58.0288 40.3618 58.5239 40.2999 58.9684 40.0986C61.8378 38.4033 64.9337 37.1244 68.163 36.3001C68.5498 36.1714 68.8856 35.9226 69.1214 35.5901C69.9024 34.3476 70.6124 33.0696 71.3224 31.7561C71.471 31.4746 71.697 31.2414 71.9737 31.0842C72.2505 30.9269 72.5665 30.8521 72.8844 30.8686H79.7005C80.0369 30.849 80.3716 30.9295 80.6623 31.1001C80.9529 31.2708 81.1865 31.5237 81.3334 31.8271C82.0079 33.0696 82.6824 34.3121 83.4634 35.3771C83.706 35.7709 84.0851 36.0616 84.5284 36.1936C87.7119 37.0374 90.7682 38.3029 93.6164 39.9566C94.0578 40.1679 94.5524 40.242 95.0363 40.1696C96.4208 39.8501 97.7699 39.4951 99.1189 39.0691C99.441 38.9579 99.789 38.9457 100.118 39.0343C100.447 39.1229 100.742 39.3082 100.965 39.5661C102.527 41.1636 104.124 42.7256 105.722 44.3231C105.971 44.5444 106.147 44.835 106.23 45.1577C106.312 45.4803 106.296 45.8202 106.183 46.1336C105.793 47.4825 105.402 48.8671 105.118 50.2161C105.015 50.6958 105.078 51.1965 105.296 51.6361C106.956 54.4936 108.222 57.5626 109.059 60.7596C109.211 61.1921 109.497 61.5649 109.875 61.8245C111.082 62.57 112.36 63.28 113.603 63.99C113.897 64.1231 114.141 64.346 114.301 64.6267C114.46 64.9073 114.527 65.2313 114.49 65.552V72.368C114.527 72.6888 114.46 73.0128 114.301 73.2934C114.141 73.5741 113.897 73.7969 113.603 73.93C112.68 74.569 111.934 75.1015 110.94 75.634ZM60.0335 103.714C61.773 102.756 63.5834 101.904 65.0744 100.945C66.25 100.213 67.5954 99.797 68.9794 99.7385L75.0144 99.49C80.1619 99.3125 85.3449 99.135 90.4924 98.8865C91.6426 98.953 92.7778 98.5998 93.6873 97.8925L110.692 81.5625C110.887 81.3908 111.065 81.2005 111.224 80.9945C111.515 80.6978 111.695 80.31 111.734 79.8963C111.773 79.4826 111.668 79.0682 111.437 78.7225C110.94 78.1545 110.053 78.19 109.165 78.7225C104.373 81.7755 99.5804 84.864 94.7524 87.8815C93.7749 88.4234 92.7674 88.9093 91.7349 89.337C91.4418 89.4938 91.1965 89.7268 91.0248 90.0115C90.5652 90.8961 89.8725 91.6383 89.0216 92.1576C88.1706 92.677 87.1938 92.9537 86.1969 92.958H79.0969H76.4344C76.257 92.9836 76.0762 92.9706 75.9043 92.9197C75.7324 92.8688 75.5736 92.7813 75.4387 92.6633C75.3038 92.5453 75.196 92.3995 75.1228 92.2359C75.0495 92.0723 75.0126 91.8948 75.0144 91.7155C75.0144 90.97 75.5469 90.4375 76.4344 90.3665H86.1259C86.6938 90.3598 87.2482 90.193 87.7254 89.8853C88.2027 89.5776 88.5834 89.1414 88.8239 88.627C88.9437 88.106 88.8948 87.5604 88.6842 87.069C88.4736 86.5777 88.1123 86.166 87.6524 85.8935C86.9865 85.4833 86.2315 85.2397 85.4514 85.1835C79.2034 85.1835 72.9555 85.1835 66.7075 85.1835C63.4841 85.1736 60.3058 85.9408 57.4419 87.42C55.0931 88.6664 52.8803 90.1536 50.839 91.8575L60.0335 103.714ZM57.2645 63.4575C56.4835 62.783 55.7734 62.3925 55.4539 61.789C54.9845 60.8324 54.9114 59.7293 55.2504 58.719C55.5893 57.7088 56.3131 56.873 57.2645 56.393C63.264 53.553 69.2635 50.713 75.263 47.8021C75.6106 47.6093 76.0014 47.5082 76.3989 47.5082C76.7963 47.5082 77.1873 47.6093 77.5349 47.8021L95.2849 56.3221C95.9255 56.6016 96.4694 57.0639 96.8483 57.6513C97.2272 58.2386 97.4243 58.9247 97.4149 59.6235C97.4149 61.292 97.4149 62.6765 95.3914 63.1735V84.4735C96.3718 83.9117 97.32 83.2954 98.2314 82.6275C98.8537 82.2015 99.3748 81.6441 99.7579 80.9945C102.305 76.0954 103.213 70.5086 102.349 65.055C101.781 61.3969 100.447 57.9 98.4342 54.7928C96.4216 51.6857 93.776 49.0384 90.67 47.0239C87.5641 45.0095 84.0679 43.6733 80.4102 43.1027C76.7524 42.5321 73.0153 42.74 69.4434 43.7128C65.8715 44.6856 62.5452 46.4013 59.6819 48.7479C56.8186 51.0944 54.4828 54.0189 52.8273 57.3302C51.1718 60.6414 50.2338 64.2647 50.0747 67.9633C49.9156 71.6619 50.5389 75.3524 51.9039 78.7935C52.815 81.1588 54.0973 83.3638 55.7025 85.3255C57.1225 85.1125 57.442 84.296 57.4065 83.018C57.4065 79.2905 57.4065 75.5275 57.4065 71.7645L57.2645 63.4575ZM103.414 79.2905C104.124 78.8645 104.586 78.474 105.118 78.2255C105.585 78.0505 105.988 77.7412 106.279 77.3369C106.57 76.9325 106.734 76.4512 106.751 75.9535C106.797 75.5734 106.943 75.212 107.173 74.9065C107.404 74.6009 107.712 74.3619 108.065 74.214C109.201 73.6105 110.301 72.9005 111.402 72.297C111.604 72.2151 111.774 72.0712 111.889 71.8862C112.004 71.7013 112.057 71.4846 112.041 71.2675C112.041 69.7765 112.041 68.321 112.041 66.83C112.063 66.58 112.006 66.3294 111.879 66.113C111.752 65.8967 111.56 65.7254 111.331 65.623C110.124 64.984 108.952 64.345 107.781 63.5995C107.332 63.3189 106.994 62.8928 106.822 62.3925C105.991 58.7627 104.563 55.2959 102.598 52.1331C102.351 51.6775 102.275 51.1485 102.385 50.6421C102.669 49.2576 103.13 47.9086 103.414 46.5241C103.445 46.3389 103.439 46.1495 103.397 45.9667C103.354 45.7839 103.276 45.6113 103.166 45.459C102.101 44.323 101.036 43.2581 99.8998 42.1931C99.5849 41.9568 99.1893 41.8547 98.7993 41.9091C97.5986 42.1746 96.4134 42.5065 95.2493 42.9031C94.8715 43.0278 94.47 43.0639 94.076 43.0085C93.682 42.9531 93.3062 42.8077 92.9774 42.5836C90.0003 40.6936 86.7229 39.325 83.2859 38.5366C82.7002 38.3446 82.1906 37.9717 81.8304 37.4716C81.0494 36.3356 80.4459 35.0931 79.7359 33.9216C79.6386 33.7708 79.508 33.6444 79.3541 33.552C79.2002 33.4597 79.0272 33.4039 78.8484 33.3891C77.2864 33.3891 75.7244 33.3891 74.1269 33.3891C73.937 33.4118 73.7549 33.4782 73.5948 33.5828C73.4347 33.6875 73.3009 33.8277 73.2039 33.9926C72.4584 35.1286 71.8549 36.3711 71.1094 37.5426C70.777 38.0318 70.2891 38.3946 69.7249 38.5721C66.1983 39.412 62.83 40.8145 59.7494 42.7256C59.2272 43.003 58.6251 43.0908 58.0455 42.9741C56.6965 42.7256 55.383 42.2641 54.034 41.9446C53.8409 41.9114 53.6429 41.9195 53.4532 41.9684C53.2635 42.0174 53.0864 42.1061 52.9335 42.2286C51.7975 43.2936 50.697 44.3941 49.632 45.5301C49.5242 45.6696 49.4465 45.83 49.4037 46.0011C49.361 46.1721 49.3541 46.3502 49.3835 46.5241C49.703 47.9086 50.1645 49.2576 50.413 50.6421C50.5242 51.1833 50.4491 51.7463 50.1999 52.2395C48.2619 55.3486 46.8468 58.7545 46.0109 62.3215C45.8196 62.869 45.4591 63.3415 44.9815 63.6705C43.8455 64.4515 42.603 65.055 41.4315 65.765C41.1259 66.0148 40.9235 66.3689 40.8635 66.759C40.8635 68.25 40.8635 69.741 40.8635 71.2675C40.8457 71.4986 40.9013 71.7294 41.0224 71.927C41.1436 72.1246 41.324 72.279 41.538 72.368L44.8039 74.2495C45.166 74.4139 45.4818 74.6653 45.7233 74.9811C45.9648 75.297 46.1247 75.6676 46.1885 76.06C46.8419 79.1483 48.0443 82.0941 49.7385 84.7575C50.1709 85.2708 50.4581 85.8903 50.5704 86.552C50.6828 87.2136 50.6162 87.8933 50.3775 88.5205C50.339 88.7437 50.339 88.9718 50.3775 89.195L53.9275 86.71C51.0007 82.8989 49.0617 78.4233 48.283 73.6815C47.5269 68.9309 47.9614 64.0669 49.5475 59.5254C51.1336 54.984 53.8217 50.9071 57.371 47.6601C62.1848 43.3123 68.32 40.7082 74.7916 40.2661C81.2632 39.824 87.6956 41.5695 93.056 45.2223C98.4165 48.875 102.394 54.2232 104.35 60.408C106.305 66.5928 106.126 73.2554 103.84 79.326L103.414 79.2905ZM91.4154 86.6745C92.3739 86.4615 92.8354 86.1065 92.8354 85.0415C92.8354 77.9415 92.8354 71.1255 92.8354 64.1675V63.1025H60.069V83.4795C61.276 83.231 62.412 82.9825 63.619 82.8405C64.826 82.6985 64.613 82.521 64.613 81.7755C64.613 79.894 64.613 78.2255 64.613 76.202C64.613 74.924 65.0389 74.5335 66.3169 74.5335H75.263V67.4335C75.263 66.0845 75.689 65.6585 77.038 65.6585H86.2679C88.2204 65.6585 88.5044 65.9426 88.5044 67.8596C88.5044 72.6165 88.5044 77.409 88.5044 82.0595C88.4909 82.2462 88.5154 82.4337 88.5764 82.6106C88.6374 82.7876 88.7337 82.9503 88.8594 83.089C90.0597 84.0253 90.9099 85.3383 91.2734 86.8165L91.4154 86.6745ZM49.5255 113.512C49.8372 113.406 50.1351 113.263 50.413 113.086L58.507 107.548C58.6299 107.473 58.734 107.37 58.8117 107.249C58.8895 107.127 58.9386 106.989 58.9557 106.846C58.9728 106.702 58.9573 106.557 58.9103 106.421C58.8633 106.284 58.7861 106.16 58.6844 106.057L47.5729 91.8575C47.4777 91.6992 47.3492 91.5635 47.1965 91.4596C47.0437 91.3558 46.8702 91.2863 46.688 91.256C46.5058 91.2256 46.3192 91.235 46.141 91.2837C45.9629 91.3324 45.7973 91.4192 45.6559 91.538L37.3845 97.1825C37.2367 97.2519 37.1083 97.3567 37.0106 97.4875C36.9129 97.6183 36.8489 97.7712 36.8244 97.9327C36.7998 98.0941 36.8154 98.2591 36.8698 98.413C36.9241 98.567 37.0155 98.7053 37.1359 98.8155C40.6859 103.502 44.52 108.223 48.2474 113.015C48.5932 113.282 48.9759 113.498 49.3835 113.654L49.5255 113.512ZM94.7169 60.44C94.9654 59.659 94.9653 59.0556 94.0424 58.5941C88.4334 55.9434 82.848 53.2454 77.2864 50.5001C77.0532 50.3695 76.7904 50.3009 76.5231 50.3009C76.2559 50.3009 75.9931 50.3695 75.7599 50.5001C70.1154 53.1981 64.5064 55.8961 58.8619 58.5231C58.6744 58.5844 58.5022 58.6852 58.3568 58.8185C58.2114 58.9519 58.0961 59.1148 58.0188 59.2963C57.9415 59.4778 57.9039 59.6738 57.9085 59.8711C57.9131 60.0683 57.9598 60.2623 58.0455 60.44H94.7169ZM85.6644 74.64V68.4985H77.7479V74.64H85.6644ZM67.0624 82.6275H75.0144V77.3025H67.0624V82.6275ZM85.6998 77.3025H77.7124V82.5565H85.6998V77.3025Z" fill="black"/>
</g>
<defs>
<filter id="filter0_dd_2673_1934" x="0" y="0" width="149" height="149" filterUnits="userSpaceOnUse" color-interpolation-filters="sRGB">
<feFlood flood-opacity="0" result="BackgroundImageFix"/>
<feColorMatrix in="SourceAlpha" type="matrix" values="0 0 0 0 0 0 0 0 0 0 0 0 0 0 0 0 0 0 127 0" result="hardAlpha"/>
<feOffset dy="1"/>
<feGaussianBlur stdDeviation="1.5"/>
<feComposite in2="hardAlpha" operator="out"/>
<feColorMatrix type="matrix" values="0 0 0 0 0 0 0 0 0 0 0 0 0 0 0 0 0 0 0.1 0"/>
<feBlend mode="normal" in2="BackgroundImageFix" result="effect1_dropShadow_2673_1934"/>
<feColorMatrix in="SourceAlpha" type="matrix" values="0 0 0 0 0 0 0 0 0 0 0 0 0 0 0 0 0 0 127 0" result="hardAlpha"/>
<feOffset dy="1"/>
<feGaussianBlur stdDeviation="1"/>
<feComposite in2="hardAlpha" operator="out"/>
<feColorMatrix type="matrix" values="0 0 0 0 0 0 0 0 0 0 0 0 0 0 0 0 0 0 0.06 0"/>
<feBlend mode="normal" in2="effect1_dropShadow_2673_1934" result="effect2_dropShadow_2673_1934"/>
<feBlend mode="normal" in="SourceGraphic" in2="effect2_dropShadow_2673_1934" result="shape"/>
</filter>
</defs>
</svg>
