<svg width="149" height="149" viewBox="0 0 149 149" fill="none" xmlns="http://www.w3.org/2000/svg">
<g filter="url(#filter0_dd_2673_1860)">
<rect x="3" y="2" width="143" height="143" rx="4" fill="#F4F4F4" shape-rendering="crispEdges"/>
<path d="M65.9587 34.6871C67.8431 35.121 69.5349 36.131 70.7857 37.5689C71.7834 38.6811 72.4204 40.0555 72.6166 41.5191C72.6379 41.7132 72.7105 41.8987 72.8271 42.0575C72.9438 42.2164 73.1006 42.3432 73.2825 42.4257C75.2039 43.3958 76.8328 44.8353 78.0095 46.6027C78.1297 46.7365 78.2782 46.8433 78.4449 46.916C78.6115 46.9887 78.7924 47.0253 78.975 47.0236H92.2908C93.8555 47.0236 94.1551 47.2826 94.1551 48.8368V57.1582C94.1551 57.8382 94.155 58.4534 93.1896 58.6153C92.2242 58.7772 91.6917 58.2915 91.6917 57.2877V49.4196H79.5409C79.5409 50.7796 79.774 52.1395 79.8405 53.5318C79.9071 54.9241 79.4743 54.9888 78.3758 54.9888H50.0462C49.0142 54.9888 48.6481 54.6327 48.6148 53.6289C48.5815 52.6252 48.6148 52.2366 48.6148 51.5242C48.6148 50.8119 48.8478 50.132 48.9809 49.4196H36.8635V109.936H91.4253C91.4253 109.515 91.4253 109.094 91.4253 108.706C91.4208 108.553 91.4475 108.4 91.5037 108.257C91.5599 108.114 91.6444 107.983 91.7526 107.872C91.8608 107.761 91.9905 107.671 92.1343 107.609C92.278 107.546 92.433 107.512 92.5904 107.508C92.9065 107.523 93.2061 107.649 93.4329 107.864C93.6598 108.079 93.7982 108.366 93.8221 108.673C93.8887 109.546 93.8887 110.423 93.8221 111.296C93.8221 111.571 93.7099 111.834 93.5101 112.029C93.3104 112.223 93.0395 112.332 92.7569 112.332H36.1645C35.8395 112.373 35.5094 112.321 35.2141 112.183C34.9187 112.045 34.6708 111.827 34.5 111.555V47.7359C34.6949 47.4838 34.9539 47.2855 35.2517 47.1606C35.5494 47.0357 35.8755 46.9884 36.1977 47.0236H49.5136C49.7401 47.0446 49.9681 47.0006 50.1693 46.897C50.3704 46.7934 50.5359 46.6348 50.6454 46.4408C51.8081 44.6936 53.413 43.2664 55.3061 42.2962C55.4487 42.2098 55.5723 42.0965 55.6694 41.9631C55.7666 41.8297 55.8354 41.6787 55.8719 41.5191C55.9891 40.441 56.3479 39.4009 56.9231 38.4723C57.4983 37.5436 58.2757 36.7489 59.2009 36.1442C60.2646 35.5558 61.3783 35.0575 62.5299 34.6548L65.9587 34.6871ZM77.2439 52.6575V52.2042C77.1323 50.4509 76.5137 48.7639 75.4595 47.3375C74.4052 45.9111 72.9582 44.8033 71.2851 44.1418C70.9401 44.0403 70.6405 43.8283 70.435 43.5403C70.2296 43.2523 70.1303 42.9051 70.1532 42.5553C70.0399 41.072 69.3542 39.6852 68.2335 38.6732C67.1129 37.6612 65.6403 37.0988 64.1111 37.0988C62.582 37.0988 61.1094 37.6612 59.9887 38.6732C58.8681 39.6852 58.1823 41.072 58.069 42.5553C58.0842 42.92 57.9794 43.2798 57.7699 43.5826C57.5603 43.8854 57.2569 44.1153 56.9039 44.239C54.6501 45.2153 52.8476 46.9684 51.8439 49.1606C51.291 50.2694 51.0172 51.4903 51.045 52.7223L77.2439 52.6575Z" fill="black"/>
<path d="M114.329 83.8703V93.584C114.361 93.9389 114.279 94.2948 114.094 94.6023C113.91 94.9098 113.631 95.1536 113.297 95.3001L92.1913 106.212C91.8974 106.408 91.5492 106.513 91.1926 106.513C90.8361 106.513 90.4878 106.408 90.1939 106.212L68.8885 93.2602C68.6395 93.1297 68.4347 92.9318 68.2989 92.6905C68.163 92.4491 68.1018 92.1747 68.1228 91.9003V73.509C68.086 73.1827 68.1564 72.8534 68.3239 72.5684C68.4913 72.2834 68.7472 72.0573 69.0549 71.9224L90.5601 60.7193C90.7986 60.6002 91.0678 60.5521 91.3342 60.5809C91.6006 60.6097 91.8523 60.7141 92.0581 60.8812L105.074 67.7779C107.837 69.235 110.567 70.7244 113.363 72.1491C113.724 72.3072 114.025 72.5688 114.228 72.8989C114.43 73.2289 114.524 73.6114 114.495 73.9947C114.296 77.3945 114.329 80.6324 114.329 83.8703ZM70.3533 75.3222C70.34 75.5379 70.34 75.7542 70.3533 75.9698V90.7671C70.3356 90.9614 70.3807 91.1562 70.4821 91.3244C70.5835 91.4927 70.7362 91.6261 70.9191 91.706L89.1619 102.942C89.3653 103.063 89.5766 103.171 89.7944 103.265C89.7944 103.039 89.7944 102.909 89.7944 102.812V86.6226C89.7944 86.1045 89.5281 85.9102 89.1619 85.7159L71.0523 75.7756L70.3533 75.3222ZM92.1913 103.298L92.7239 103.039C98.9158 99.8008 105.041 96.7248 111.233 93.6164C111.732 93.3574 111.766 93.0336 111.766 92.5803V76.3908C111.766 76.1317 111.766 75.905 111.766 75.5489L107.205 77.8802C107.001 77.9571 106.829 78.0969 106.714 78.2782C106.6 78.4596 106.55 78.6724 106.572 78.884C106.572 80.7296 106.572 82.6075 106.572 84.4855C106.568 84.7155 106.512 84.9418 106.408 85.1487C106.305 85.3555 106.156 85.538 105.973 85.6835C104.242 86.7197 102.411 87.6587 100.614 88.5977C100.447 88.6916 100.259 88.7428 100.067 88.7465C99.8751 88.7502 99.6851 88.7062 99.5153 88.6188C99.3454 88.5313 99.2013 88.4032 99.0964 88.2466C98.9915 88.0899 98.9293 87.9099 98.9158 87.7234C98.8835 87.3463 98.8835 86.9673 98.9158 86.5901V82.3809L98.0503 82.8018C96.3858 83.676 94.7213 84.6151 92.9902 85.4569C92.751 85.5426 92.5486 85.7043 92.4157 85.9158C92.2828 86.1274 92.2271 86.3764 92.2578 86.6226C92.2578 91.868 92.2578 97.1457 92.2578 102.391L92.1913 103.298ZM97.4178 80.4057L97.2513 80.2439L78.143 70.0769C78.0329 70.0296 77.9138 70.0051 77.7935 70.0051C77.6731 70.0051 77.5541 70.0296 77.444 70.0769L71.5516 73.1204L71.818 73.3795L90.5933 83.6761C90.796 83.757 91.0232 83.757 91.2259 83.6761L97.4178 80.4057ZM110.534 73.4443L109.768 72.991L93.9556 64.6371C92.9902 64.1191 91.9916 63.2125 90.9929 63.2125C89.9942 63.2125 89.0288 64.0543 88.0301 64.5724L86.4988 65.3171L86.0327 65.6409L105.041 75.8403C105.151 75.8876 105.27 75.912 105.391 75.912C105.511 75.912 105.63 75.8876 105.74 75.8403L110.534 73.4443ZM80.3402 68.5874L80.8062 68.8464C87.1312 72.0843 93.4563 75.5489 99.8479 78.8516C100.323 79.0347 100.721 79.3665 100.981 79.7945C101.24 80.2226 101.345 80.7225 101.279 81.2152C101.279 82.6075 101.279 83.9998 101.279 85.5216C102.245 85.0359 103.11 84.615 103.909 84.1294C103.994 84.0499 104.062 83.9543 104.108 83.8485C104.154 83.7427 104.177 83.6289 104.176 83.5141C104.176 81.8952 104.176 80.2763 104.176 78.7221C104.164 78.5834 104.119 78.4494 104.044 78.3311C103.969 78.2128 103.865 78.1138 103.743 78.0421L83.769 67.2923C83.5232 67.1968 83.2491 67.1968 83.0033 67.2923C82.2044 67.6808 81.3722 68.1017 80.4734 68.5874H80.3402Z" fill="black"/>
<path d="M52.2436 98.0849V102.197C52.2436 103.136 51.8441 103.557 50.8787 103.557H42.9225C41.9904 103.557 41.6241 103.136 41.5908 102.229V93.908C41.5908 93.0014 41.9903 92.6128 42.9557 92.6128H50.8121C51.8108 92.6128 52.2103 93.0337 52.2436 94.0051V98.0849ZM44.021 101.323H49.7802V95.1708H44.021V101.323Z" fill="black"/>
<path d="M41.5908 66.4184V62.2415C41.5908 61.3349 41.9904 60.9463 42.9225 60.9463H50.8787C51.8108 60.9463 52.2103 61.3349 52.2436 62.2415V70.5629C52.2436 71.4695 51.8108 71.858 50.912 71.858C48.2488 71.858 45.5856 71.858 42.9557 71.858C42.0236 71.858 41.6241 71.5018 41.5908 70.5952V66.4184ZM44.0543 63.1805V69.3649H49.7468V63.1805H44.0543Z" fill="black"/>
<path d="M41.5908 82.155V78.0429C41.5908 77.1039 41.9903 76.7153 42.989 76.7153H50.8453C51.844 76.7153 52.2436 77.1039 52.2436 78.0429V86.3319C52.2436 87.2709 51.8108 87.6595 50.8453 87.6595H42.989C41.9903 87.6595 41.6241 87.2709 41.5908 86.2996V82.155ZM44.0543 79.1114V85.2634H49.7468V79.0466H44.0543V79.1114Z" fill="black"/>
<path d="M64.2945 65.1878H72.6502C73.6489 65.1878 74.115 65.5763 74.115 66.3211C74.115 67.0658 73.6156 67.5191 72.6502 67.5191H55.8389C54.6737 67.5191 54.0079 66.6125 54.6071 65.803C54.7654 65.6181 54.9641 65.4699 55.1887 65.369C55.4132 65.2682 55.6582 65.2174 55.9055 65.2202C58.7018 65.1554 61.4981 65.1878 64.2945 65.1878Z" fill="black"/>
<path d="M62.6965 99.1863H55.0398C54.0744 99.1863 53.6084 98.8301 53.6084 98.0854C53.6084 97.3407 54.1077 96.855 55.0398 96.855H70.3864C71.3518 96.855 71.8845 97.3083 71.8512 98.053C71.8179 98.7978 71.3518 99.1863 70.4196 99.1863H62.6965Z" fill="black"/>
<path d="M60.4994 83.4174H55.5725C54.6737 83.4174 54.1743 82.9641 54.2076 82.2194C54.2409 81.4747 54.6737 81.0861 55.5392 81.0861H65.5594C65.733 81.0623 65.9099 81.0758 66.0775 81.1257C66.2452 81.1757 66.3995 81.2608 66.5296 81.375C66.6598 81.4892 66.7625 81.6299 66.8307 81.787C66.8989 81.944 66.9309 82.1137 66.9243 82.2841C66.9243 82.9965 66.4249 83.385 65.5594 83.4174H60.4994Z" fill="black"/>
<path d="M68.8878 43.8827C68.8878 45.0936 68.3933 46.2548 67.513 47.111C66.6327 47.9672 65.4389 48.4482 64.194 48.4482C62.9491 48.4482 61.7552 47.9672 60.875 47.111C59.9947 46.2548 59.5001 45.0936 59.5001 43.8827C59.4957 43.2735 59.6158 42.6695 59.8535 42.1058C60.0911 41.5421 60.4417 41.0299 60.8846 40.5991C61.3275 40.1683 61.854 39.8274 62.4336 39.5962C63.0131 39.3651 63.6341 39.2483 64.2605 39.2526C64.8795 39.2523 65.4924 39.3729 66.0627 39.6071C66.6329 39.8413 67.1491 40.1845 67.5805 40.6162C68.012 41.048 68.35 41.5595 68.5745 42.1206C68.7991 42.6817 68.9056 43.2809 68.8878 43.8827ZM64.194 41.6486C63.8714 41.6106 63.5442 41.6396 63.234 41.7338C62.9238 41.8279 62.6377 41.9849 62.3945 42.1946C62.1513 42.4042 61.9566 42.6616 61.8232 42.9498C61.6899 43.2381 61.621 43.5505 61.621 43.8666C61.621 44.1826 61.6899 44.4951 61.8232 44.7833C61.9566 45.0715 62.1513 45.329 62.3945 45.5386C62.6377 45.7482 62.9238 45.9053 63.234 45.9994C63.5442 46.0935 63.8714 46.1225 64.194 46.0845C64.4996 46.0941 64.8039 46.0415 65.0875 45.9301C65.371 45.8188 65.6275 45.651 65.8406 45.4377C66.0537 45.2243 66.2186 44.9701 66.3249 44.6912C66.4311 44.4123 66.4763 44.1149 66.4577 43.818C66.4149 43.2454 66.1439 42.7116 65.7024 42.3306C65.2609 41.9495 64.6837 41.7513 64.0941 41.7781L64.194 41.6486Z" fill="black"/>
</g>
<defs>
<filter id="filter0_dd_2673_1860" x="0" y="0" width="149" height="149" filterUnits="userSpaceOnUse" color-interpolation-filters="sRGB">
<feFlood flood-opacity="0" result="BackgroundImageFix"/>
<feColorMatrix in="SourceAlpha" type="matrix" values="0 0 0 0 0 0 0 0 0 0 0 0 0 0 0 0 0 0 127 0" result="hardAlpha"/>
<feOffset dy="1"/>
<feGaussianBlur stdDeviation="1.5"/>
<feComposite in2="hardAlpha" operator="out"/>
<feColorMatrix type="matrix" values="0 0 0 0 0 0 0 0 0 0 0 0 0 0 0 0 0 0 0.1 0"/>
<feBlend mode="normal" in2="BackgroundImageFix" result="effect1_dropShadow_2673_1860"/>
<feColorMatrix in="SourceAlpha" type="matrix" values="0 0 0 0 0 0 0 0 0 0 0 0 0 0 0 0 0 0 127 0" result="hardAlpha"/>
<feOffset dy="1"/>
<feGaussianBlur stdDeviation="1"/>
<feComposite in2="hardAlpha" operator="out"/>
<feColorMatrix type="matrix" values="0 0 0 0 0 0 0 0 0 0 0 0 0 0 0 0 0 0 0.06 0"/>
<feBlend mode="normal" in2="effect1_dropShadow_2673_1860" result="effect2_dropShadow_2673_1860"/>
<feBlend mode="normal" in="SourceGraphic" in2="effect2_dropShadow_2673_1860" result="shape"/>
</filter>
</defs>
</svg>
