<svg width="149" height="149" viewBox="0 0 149 149" fill="none" xmlns="http://www.w3.org/2000/svg">
<g filter="url(#filter0_dd_2673_1906)">
<rect x="3" y="2" width="143" height="143" rx="4" fill="#F4F4F4" shape-rendering="crispEdges"/>
<path d="M49.7333 40.3263C49.7256 40.2494 49.7256 40.1719 49.7333 40.095C49.7333 37.7489 50.2952 37.7158 52.1787 37.7489H57.7961C59.217 37.7489 59.5475 38.1124 59.5805 39.5333V40.2933C60.0432 40.2933 60.4727 40.2933 60.8692 40.2933C61.2743 40.3697 61.651 40.5544 61.9594 40.8279C62.2678 41.1014 62.4963 41.4533 62.6206 41.8463C62.6206 42.375 63.0171 42.4742 63.4797 42.4411H68.1059C69.4277 42.4411 69.7912 42.8046 69.7912 44.1264C69.7912 49.6117 69.7912 55.0971 69.7912 60.6485V61.7059H76.1026H84.9915H99.597C101.117 61.7059 101.415 62.0033 101.415 63.5233V84.2421H112.848C114.07 84.2421 114.5 84.6716 114.5 85.8612V107.637C114.5 108.827 114.07 109.257 112.881 109.257H36.1191C34.8965 109.257 34.5 108.86 34.5 107.571V85.9604C34.5 84.6386 34.8965 84.2421 36.1852 84.2421H47.4203C47.4203 82.8873 47.4203 81.5985 47.4203 80.3098C47.4203 80.3098 46.9576 79.9463 46.7263 79.9463H41.4393C39.9193 79.9463 39.5558 79.6159 39.5558 78.0958V44.4238C39.5558 42.9698 39.8862 42.6063 41.3732 42.6063H45.9333C46.1646 42.6063 46.5942 42.4081 46.6602 42.2098C46.8276 41.6286 47.1941 41.1247 47.6955 40.7864C48.1969 40.4481 48.8012 40.297 49.4029 40.3594L49.7333 40.3263ZM42.0671 77.4019H67.3129V45.1177H62.7858C62.7858 45.8116 62.7858 46.4725 62.7858 47.1665C62.7858 47.8604 62.3563 48.6204 61.365 48.6204H48.1473C47.1559 48.6204 46.7264 48.1578 46.6933 47.1665C46.6603 46.1751 46.6933 45.8116 46.6933 45.1177H42.1993L42.0671 77.4019ZM86.049 106.745V86.9186H79.0435V91.9414C79.0435 93.131 78.614 93.5275 77.4244 93.5605H72.4017C69.9564 93.5605 69.8903 93.5605 69.8903 91.0492V86.9186H62.885V106.745H86.049ZM111.889 86.7534H104.851C104.851 88.5378 104.851 90.2561 104.851 92.0074C104.879 92.1961 104.862 92.3887 104.802 92.5698C104.742 92.7509 104.641 92.9154 104.506 93.0503C104.371 93.1852 104.207 93.2866 104.026 93.3465C103.844 93.4064 103.652 93.4231 103.463 93.3953H97.1187C96.1604 93.3953 95.6978 92.9657 95.6648 91.9414V87.6456C95.6648 87.3482 95.6648 87.0839 95.6648 86.7865H88.6925V106.613H111.823L111.889 86.7534ZM53.3682 86.9186V91.6439C53.3682 93.2962 53.0709 93.6266 51.4517 93.6266H46.0984C44.5123 93.6266 44.1819 93.2962 44.1819 91.71V86.9186H37.1766V106.745H60.3075V86.9186H53.3682ZM92.1621 64.3825C92.1494 64.4702 92.1494 64.5592 92.1621 64.6468C92.1621 66.233 92.1621 67.9513 92.1621 69.4382C92.1621 70.9252 91.7656 71.0244 90.576 71.0574H86.9742C82.5793 71.0574 82.9758 71.52 82.9758 67.0591V64.3825H76.0035V84.209H99.1345V64.3825H92.1621ZM50.0638 84.209H73.1947V64.3825H69.8903V77.9967C69.8903 79.715 69.5929 80.0124 67.9076 80.0124H50.0638V84.209ZM60.4397 42.9038H60.2414C60.0761 42.9038 59.8118 43.2012 59.7457 43.3994C59.4483 44.5229 59.2501 44.7212 58.0935 44.7212H51.4847C50.2951 44.7212 50.0969 44.7212 49.7995 43.3333C49.7995 43.3333 49.535 43.102 49.4029 42.9698C49.2707 42.8377 49.1055 43.2342 49.1055 43.3333C49.1055 44.2916 49.1055 45.2168 49.1055 46.1751H60.3736L60.4397 42.9038ZM85.3881 68.4139H89.5846V64.2834H85.3881V68.4139ZM76.4992 86.9186H72.3356V90.9831H76.4992V86.9186ZM46.528 86.9186V91.0161H50.6586V86.9186H46.528ZM98.1762 86.9186V91.0161H102.307V86.9186H98.1762ZM57.0031 42.1437V40.2933H52.2778V42.1437H57.0031Z" fill="black"/>
<path d="M58.1261 52.2227H62.9836C63.9088 52.2227 64.5036 52.7183 64.5036 53.4453C64.5036 54.1723 63.9418 54.6679 62.9836 54.6679H53.0703C52.1781 54.6679 51.6494 54.2384 51.6494 53.5114C51.6494 52.7844 52.1451 52.2227 53.0703 52.2227H58.1261Z" fill="black"/>
<path d="M57.9609 74.8574H53.0703C52.1451 74.8574 51.6494 74.3948 51.6494 73.6678C51.6494 72.9408 52.1451 72.4121 53.0703 72.4121C56.3747 72.4121 59.6791 72.4121 62.9836 72.4121C63.9418 72.4121 64.5036 72.8747 64.5036 73.6348C64.5036 74.3948 63.9418 74.8574 62.9836 74.8574H57.9609Z" fill="black"/>
<path d="M58.1261 61.408H53.1694C52.1781 61.408 51.6494 60.9784 51.6494 60.2184C51.6494 59.4584 52.1781 58.9297 53.1694 58.9297H63.0827C64.0079 58.9297 64.6027 59.4254 64.6027 60.1854C64.6027 60.9454 64.041 61.408 63.0827 61.408H58.1261Z" fill="black"/>
<path d="M58.0935 65.6709H62.984C63.9423 65.6709 64.504 66.1666 64.504 66.8935C64.504 67.6205 63.9093 68.1492 62.984 68.1492H53.0708C52.1455 68.1492 51.6169 67.6536 51.6499 66.8605C51.6829 66.0674 52.1455 65.7039 53.0708 65.6709H58.0935Z" fill="black"/>
<path d="M50.2286 65.1427C49.6069 66.6843 48.427 67.935 46.9242 68.6454C46.3988 68.5175 45.9196 68.2457 45.5402 67.8605C45.1607 67.4752 44.8962 66.9918 44.7764 66.4645C44.7898 66.2744 44.8475 66.0901 44.9448 65.9262C45.0421 65.7624 45.1764 65.6236 45.337 65.5208C45.4975 65.4181 45.6798 65.3543 45.8693 65.3346C46.0588 65.3148 46.2503 65.3396 46.4286 65.4071C46.5882 65.496 46.7754 65.5215 46.953 65.4787C47.1305 65.4358 47.2854 65.3277 47.3869 65.1758C47.6512 64.9114 47.8826 64.5479 48.213 64.4158C48.6297 64.267 49.085 64.267 49.5017 64.4158C50.0634 64.5149 50.0634 65.0106 50.2286 65.1427Z" fill="black"/>
<path d="M46.0328 51.7267C47.1233 52.5528 47.5198 51.7267 48.1146 51.0989C48.3434 50.8729 48.6522 50.7461 48.9738 50.7461C49.2954 50.7461 49.604 50.8729 49.8329 51.0989C49.954 51.2103 50.0508 51.3456 50.1169 51.4964C50.1831 51.6471 50.2173 51.8099 50.2173 51.9745C50.2173 52.1392 50.1831 52.302 50.1169 52.4527C50.0508 52.6034 49.954 52.7388 49.8329 52.8502C49.205 53.5441 48.5441 54.205 47.8502 54.8659C47.634 55.0778 47.3434 55.1965 47.0406 55.1965C46.7379 55.1965 46.4473 55.0778 46.2311 54.8659C45.7987 54.5895 45.4366 54.2161 45.1736 53.7754C45.0098 53.3615 45.0098 52.9007 45.1736 52.4867C45.2067 52.2224 45.6693 52.0241 46.0328 51.7267Z" fill="black"/>
<path d="M46.0659 71.9163C47.0903 72.6763 47.4868 71.9163 48.0155 71.3545C48.1214 71.2059 48.2584 71.0822 48.417 70.992C48.5756 70.9017 48.7519 70.8471 48.9338 70.832C49.1156 70.8168 49.2986 70.8415 49.4699 70.9043C49.6413 70.967 49.7968 71.0664 49.9259 71.1954C50.0549 71.3245 50.1543 71.4801 50.2171 71.6514C50.2799 71.8227 50.3044 72.0057 50.2893 72.1875C50.2741 72.3694 50.2196 72.5457 50.1294 72.7043C50.0391 72.8629 49.9154 72.9999 49.7668 73.1058C49.172 73.7337 48.5442 74.3285 47.9164 74.9233C47.8048 75.0613 47.6639 75.1726 47.5038 75.249C47.3437 75.3255 47.1685 75.3652 46.9911 75.3652C46.8137 75.3652 46.6385 75.3255 46.4784 75.249C46.3183 75.1726 46.1774 75.0613 46.0659 74.9233C45.7108 74.6762 45.4076 74.3619 45.1736 73.998C45.0098 73.5841 45.0098 73.1233 45.1736 72.7093C45.2067 72.3789 45.7024 72.1806 46.0659 71.9163Z" fill="black"/>
<path d="M47.1555 58.9313C47.4449 58.5627 47.7538 58.2098 48.0807 57.8739C48.1924 57.7474 48.3297 57.646 48.4835 57.5765C48.6373 57.5071 48.8042 57.4712 48.973 57.4712C49.1418 57.4712 49.3085 57.5071 49.4624 57.5765C49.6162 57.646 49.7535 57.7474 49.8651 57.8739C49.9855 57.9824 50.0816 58.1149 50.1475 58.2629C50.2134 58.4109 50.2474 58.5711 50.2474 58.7331C50.2474 58.8951 50.2134 59.0553 50.1475 59.2033C50.0816 59.3513 49.9855 59.4838 49.8651 59.5922C49.2373 60.2531 48.5764 60.914 47.9155 61.5418C47.8039 61.6684 47.6666 61.7698 47.5128 61.8393C47.359 61.9087 47.1921 61.9446 47.0233 61.9446C46.8545 61.9446 46.6877 61.9087 46.5339 61.8393C46.3801 61.7698 46.2428 61.6684 46.1311 61.5418C45.8398 61.2946 45.5639 61.0298 45.305 60.7488C45.0828 60.5439 44.9443 60.2639 44.9164 59.9629C44.8884 59.6619 44.9729 59.3612 45.1537 59.1189C45.3344 58.8766 45.5984 58.7098 45.8949 58.6508C46.1913 58.5917 46.4992 58.6446 46.759 58.7992L47.1555 58.9313Z" fill="black"/>
</g>
<defs>
<filter id="filter0_dd_2673_1906" x="0" y="0" width="149" height="149" filterUnits="userSpaceOnUse" color-interpolation-filters="sRGB">
<feFlood flood-opacity="0" result="BackgroundImageFix"/>
<feColorMatrix in="SourceAlpha" type="matrix" values="0 0 0 0 0 0 0 0 0 0 0 0 0 0 0 0 0 0 127 0" result="hardAlpha"/>
<feOffset dy="1"/>
<feGaussianBlur stdDeviation="1.5"/>
<feComposite in2="hardAlpha" operator="out"/>
<feColorMatrix type="matrix" values="0 0 0 0 0 0 0 0 0 0 0 0 0 0 0 0 0 0 0.1 0"/>
<feBlend mode="normal" in2="BackgroundImageFix" result="effect1_dropShadow_2673_1906"/>
<feColorMatrix in="SourceAlpha" type="matrix" values="0 0 0 0 0 0 0 0 0 0 0 0 0 0 0 0 0 0 127 0" result="hardAlpha"/>
<feOffset dy="1"/>
<feGaussianBlur stdDeviation="1"/>
<feComposite in2="hardAlpha" operator="out"/>
<feColorMatrix type="matrix" values="0 0 0 0 0 0 0 0 0 0 0 0 0 0 0 0 0 0 0.06 0"/>
<feBlend mode="normal" in2="effect1_dropShadow_2673_1906" result="effect2_dropShadow_2673_1906"/>
<feBlend mode="normal" in="SourceGraphic" in2="effect2_dropShadow_2673_1906" result="shape"/>
</filter>
</defs>
</svg>
