<svg width="149" height="149" viewBox="0 0 149 149" fill="none" xmlns="http://www.w3.org/2000/svg">
<g filter="url(#filter0_dd_2673_1949)">
<rect x="3" y="2" width="143" height="143" rx="4" fill="#F4F4F4" shape-rendering="crispEdges"/>
<path d="M114.493 73.1301C114.555 74.3152 114.222 75.4874 113.545 76.4624C112.869 77.4375 111.887 78.1601 110.756 78.5167C110.541 78.5555 110.347 78.6673 110.206 78.833C110.065 78.9987 109.986 79.2081 109.981 79.4258C108.788 86.8264 105.293 93.6627 99.9929 98.9632C94.6923 104.264 87.8559 107.759 80.4553 108.952C80.2395 108.962 80.0332 109.043 79.8687 109.184C79.7042 109.324 79.5908 109.514 79.5464 109.726C79.2247 110.813 78.5579 111.765 77.6467 112.44C76.7356 113.114 75.6297 113.473 74.4963 113.463C73.3655 113.462 72.2648 113.099 71.3559 112.426C70.4469 111.754 69.7776 110.807 69.4463 109.726C69.4016 109.506 69.2846 109.306 69.1138 109.16C68.9431 109.014 68.7283 108.928 68.5036 108.918C61.1023 107.722 54.2673 104.22 48.9719 98.9128C43.6766 93.6054 40.1909 86.7623 39.0114 79.3584C39.0019 79.1689 38.931 78.9877 38.8096 78.842C38.6882 78.6962 38.5227 78.5939 38.3381 78.5504C37.2353 78.2421 36.2635 77.5818 35.5706 76.6702C34.8778 75.7585 34.5018 74.6454 34.5 73.5003C34.4961 72.3508 34.8647 71.2309 35.5505 70.3084C36.2363 69.3859 37.2025 68.7104 38.3044 68.383C38.4979 68.3517 38.6744 68.2538 38.8034 68.1063C38.9325 67.9588 39.0061 67.7709 39.0114 67.5749C40.1429 60.5331 43.3585 53.9919 48.2433 48.7951C53.128 43.5983 59.4579 39.9843 66.4163 38.4194C66.5728 38.4004 66.731 38.4004 66.8876 38.4194C67.5581 38.4408 68.2177 38.2462 68.7693 37.8643C69.3209 37.4825 69.7352 36.9335 69.9513 36.2984C70.3654 35.3529 71.0849 34.5736 71.9943 34.0853C72.9038 33.597 73.9507 33.4279 74.9676 33.6051C76.0035 33.6658 76.9956 34.0442 77.8089 34.6888C78.6221 35.3333 79.217 36.2128 79.5127 37.2074C79.5635 37.4521 79.6932 37.6734 79.8816 37.8376C80.0701 38.0017 80.307 38.0996 80.5563 38.1165C87.7605 39.2936 94.4284 42.6577 99.6559 47.7527C104.883 52.8477 108.418 59.4271 109.779 66.5987C109.804 67.0993 109.978 67.581 110.277 67.9827C110.577 68.3844 110.99 68.6878 111.463 68.8543C112.334 69.1871 113.087 69.7711 113.627 70.5322C114.166 71.2933 114.467 72.1975 114.493 73.1301ZM41.6038 78.5167C41.6038 78.8085 41.6038 79.0779 41.6038 79.3248C42.7905 86.0338 46.0107 92.2159 50.8284 97.0336C55.6461 101.851 61.8283 105.072 68.5373 106.258C68.765 106.333 69.0131 106.315 69.2274 106.208C69.4418 106.1 69.6052 105.913 69.682 105.686C70.1217 104.823 70.7915 104.098 71.6174 103.592C72.4432 103.086 73.393 102.818 74.3616 102.818C75.3303 102.818 76.28 103.086 77.1059 103.592C77.9318 104.098 78.6017 104.823 79.0414 105.686C79.1257 105.924 79.2991 106.12 79.5251 106.233C79.7511 106.346 80.0122 106.367 80.2533 106.292C86.9624 105.105 93.1445 101.885 97.9622 97.0672C102.78 92.2495 106 86.0674 107.187 79.3584C107.229 79.2391 107.246 79.1126 107.238 78.9864C107.231 78.8602 107.197 78.737 107.141 78.6239C107.084 78.5109 107.006 78.4103 106.909 78.3283C106.813 78.2462 106.701 78.1844 106.581 78.1464C105.768 77.7325 105.076 77.1138 104.575 76.3514C104.074 75.5889 103.78 74.7089 103.722 73.7982C103.664 72.8875 103.844 71.9775 104.245 71.1578C104.646 70.3381 105.254 69.6371 106.008 69.1237C106.412 68.8207 107.052 68.585 107.187 68.2146C107.22 67.6655 107.14 67.1155 106.951 66.5987C106.967 66.4307 106.967 66.2616 106.951 66.0936C105.513 59.6884 102.21 53.8527 97.4582 49.3229C92.7067 44.7931 86.7199 41.7723 80.2533 40.6415C80.0346 40.5779 79.7997 40.6022 79.5986 40.709C79.3974 40.8159 79.2458 40.997 79.176 41.2138C78.731 42.0756 78.0575 42.7983 77.2291 43.3029C76.4007 43.8074 75.4494 44.0744 74.4795 44.0744C73.5095 44.0744 72.5583 43.8074 71.73 43.3029C70.9016 42.7983 70.228 42.0756 69.783 41.2138C69.48 40.6415 69.2107 40.5068 68.6383 40.6415C62.5859 41.652 56.9396 44.3438 52.3439 48.4097C47.7481 52.4757 44.3881 57.7519 42.6475 63.636C42.1425 65.151 41.8731 66.767 41.4691 68.3493C42.5 68.732 43.3891 69.421 44.0169 70.3237C44.6448 71.2265 44.9813 72.2997 44.9813 73.3993C44.9813 74.499 44.6448 75.5722 44.0169 76.475C43.3891 77.3777 42.5 78.0667 41.4691 78.4494L41.6038 78.5167ZM77.156 38.7561C77.1472 38.0565 76.8631 37.3887 76.3652 36.8971C75.8674 36.4056 75.1959 36.13 74.4963 36.1301C73.7909 36.1301 73.1144 36.4103 72.6156 36.9091C72.1168 37.4079 71.8366 38.0844 71.8366 38.7898C71.8366 39.4952 72.1168 40.1717 72.6156 40.6704C73.1144 41.1692 73.7909 41.4495 74.4963 41.4495C74.8497 41.4541 75.2005 41.3874 75.5275 41.2533C75.8545 41.1191 76.151 40.9203 76.3993 40.6689C76.6477 40.4174 76.8427 40.1183 76.9727 39.7896C77.1028 39.461 77.1651 39.1094 77.156 38.7561ZM39.8195 76.1264C40.5249 76.1264 41.2013 75.8461 41.7001 75.3474C42.1989 74.8486 42.4791 74.172 42.4791 73.4666C42.4791 72.7613 42.1989 72.0848 41.7001 71.586C41.2013 71.0872 40.5249 70.807 39.8195 70.807C39.4702 70.807 39.1243 70.8758 38.8016 71.0094C38.4789 71.1431 38.1857 71.3391 37.9387 71.586C37.6918 71.833 37.4958 72.1262 37.3621 72.4489C37.2285 72.7716 37.1597 73.1174 37.1597 73.4666C37.1597 73.8159 37.2285 74.1618 37.3621 74.4845C37.4958 74.8072 37.6918 75.1004 37.9387 75.3474C38.1857 75.5943 38.4789 75.7903 38.8016 75.924C39.1243 76.0576 39.4702 76.1264 39.8195 76.1264ZM109.14 76.1264C109.842 76.1266 110.517 75.8521 111.021 75.3614C111.524 74.8708 111.815 74.2029 111.833 73.5003C111.84 72.9744 111.69 72.4583 111.403 72.0173C111.117 71.5762 110.706 71.2301 110.222 71.0227C109.739 70.8153 109.205 70.7558 108.688 70.8519C108.17 70.948 107.693 71.1954 107.317 71.5626C106.94 71.9298 106.681 72.4005 106.572 72.915C106.462 73.4296 106.508 73.9649 106.703 74.4534C106.899 74.9419 107.234 75.3616 107.668 75.6594C108.101 75.9572 108.614 76.1197 109.14 76.1264ZM77.156 108.144C77.1561 107.444 76.8805 106.773 76.389 106.275C75.8974 105.777 75.2296 105.493 74.53 105.484C74.1807 105.484 73.8348 105.553 73.5121 105.686C73.1895 105.82 72.8963 106.016 72.6493 106.263C72.4023 106.51 72.2064 106.803 72.0727 107.126C71.9391 107.448 71.8703 107.794 71.8703 108.144C71.8703 108.493 71.9391 108.839 72.0727 109.161C72.2064 109.484 72.4023 109.777 72.6493 110.024C72.8963 110.271 73.1895 110.467 73.5121 110.601C73.8348 110.734 74.1807 110.803 74.53 110.803C74.8881 110.799 75.2416 110.723 75.5695 110.579C75.8973 110.435 76.1926 110.226 76.4379 109.965C76.6831 109.704 76.8731 109.396 76.9965 109.06C77.1199 108.724 77.1742 108.367 77.156 108.009V108.144Z" fill="black"/>
<path d="M69.1095 84.1393H56.4844C54.8684 84.1393 54.498 83.7689 54.498 82.1866V52.6944C54.498 51.1794 54.902 50.8091 56.4507 50.8091H62.1068C63.3861 50.8091 63.8237 51.2467 63.8237 52.5597V63.2995L64.6991 62.8955L72.1395 59.1584C73.6208 58.4177 74.4962 58.9565 74.4962 60.6062V63.2658L75.4052 62.8618L82.8456 59.1248C84.2933 58.4178 85.1686 58.9565 85.1686 60.5725V68.1475H86.3806C87.4916 68.1475 87.963 68.6188 87.963 69.7972V70.7735C87.963 71.1775 87.9629 71.5142 88.4342 71.7162C88.6223 71.8178 88.8402 71.8498 89.0496 71.8067C89.2589 71.7636 89.4464 71.6481 89.579 71.4805C91.5317 69.6625 91.5653 69.6625 93.4507 71.4805L96.043 74.0729C96.2305 74.2031 96.3837 74.3767 96.4895 74.5789C96.5953 74.7812 96.6506 75.0062 96.6506 75.2344C96.6506 75.4627 96.5953 75.6876 96.4895 75.8898C96.3837 76.0921 96.2305 76.2657 96.043 76.3958L95.336 77.1029C95.0667 77.3723 94.7637 77.5405 94.9993 78.0792C95.0734 78.2916 95.2164 78.4733 95.4055 78.5953C95.5945 78.7172 95.8189 78.7726 96.043 78.7526C98.6353 78.7526 98.669 78.7526 98.669 81.4796C98.669 82.7253 98.669 83.971 98.669 85.2167C98.669 86.4623 98.164 86.7316 97.1204 86.7653H96.043C95.6053 86.7653 95.2686 86.7653 95.0666 87.304C94.9764 87.4834 94.9506 87.6882 94.9935 87.8844C95.0364 88.0805 95.1454 88.256 95.3023 88.3814C95.6335 88.69 95.9481 89.0159 96.245 89.3576C96.3811 89.4777 96.4901 89.6254 96.5648 89.7908C96.6395 89.9562 96.6781 90.1356 96.6781 90.3171C96.6781 90.4986 96.6395 90.6781 96.5648 90.8435C96.4901 91.0089 96.3811 91.1566 96.245 91.2767C95.033 92.5223 93.7873 93.768 92.508 94.98C92.3911 95.1212 92.2445 95.2348 92.0786 95.3128C91.9128 95.3908 91.7318 95.4313 91.5485 95.4313C91.3652 95.4313 91.1842 95.3908 91.0183 95.3128C90.8525 95.2348 90.7059 95.1212 90.589 94.98C90.2806 94.7053 89.9883 94.413 89.7136 94.1047C89.4106 93.8017 89.1749 93.5323 88.6699 93.8017C88.4592 93.8642 88.2783 94.0011 88.1607 94.1868C88.0431 94.3725 87.9967 94.5944 88.0303 94.8116C88.0303 97.404 88.0303 97.4377 85.3032 97.4377H81.6336C80.4889 97.4377 80.0175 96.9664 80.0175 95.8217C80.0175 95.485 80.0175 95.1147 80.0175 94.7443C80.0429 94.6537 80.0499 94.5589 80.0382 94.4655C80.0264 94.3721 79.9961 94.2821 79.9491 94.2005C79.902 94.119 79.8392 94.0476 79.7642 93.9907C79.6893 93.9338 79.6037 93.8924 79.5125 93.869C79.3333 93.7661 79.1234 93.73 78.9201 93.7669C78.7168 93.8039 78.5331 93.9116 78.4016 94.071C76.4489 95.9226 76.4152 95.9226 74.4962 94.071L72.0385 91.6133C71.0958 90.6707 71.1295 90.0984 72.0385 89.122L72.6782 88.4823C72.9812 88.213 73.1832 87.9773 72.9475 87.506C72.8935 87.3106 72.7733 87.14 72.6076 87.0233C72.4418 86.9066 72.2406 86.8512 72.0385 86.8663C69.5471 86.7316 69.5471 86.7316 69.1095 84.1393ZM57.2251 53.5024V81.4459H69.1095C69.1175 81.3563 69.1175 81.2662 69.1095 81.1766C69.1095 78.8872 69.3115 78.8199 71.5672 78.8199H71.7355C72.1058 78.8199 72.4762 78.8199 72.6782 78.3486C72.8802 77.8772 72.8465 77.5406 72.4425 77.2039L71.7692 76.4632C70.8938 75.5206 70.8938 74.9482 71.7692 74.0392L74.3279 71.5142C76.1796 69.6625 76.2469 69.6625 78.1659 71.5142C78.2864 71.6152 78.426 71.6911 78.5763 71.7374C78.7267 71.7836 78.8848 71.7993 79.0412 71.7835C79.1531 71.7765 79.262 71.7454 79.3606 71.6922C79.4592 71.6389 79.545 71.5649 79.6122 71.4753C79.6794 71.3856 79.7264 71.2825 79.7499 71.173C79.7733 71.0635 79.7728 70.9501 79.7482 70.8408C79.7145 70.46 79.7145 70.077 79.7482 69.6962C79.7482 68.6188 80.2533 68.1475 81.2633 68.1475C81.6336 68.1475 81.9702 68.1475 82.3742 68.1475V62.3568L81.802 62.6261L73.9575 66.4979C72.6445 67.1712 71.7355 66.4978 71.7355 65.0838V62.3231L70.8265 62.7608L63.3188 66.4979C61.9721 67.1712 61.0631 66.4979 61.0631 65.1175V53.5024H57.2251ZM82.5089 70.8408C82.6001 71.5794 82.4223 72.3261 82.0081 72.9443C81.5939 73.5625 80.9709 74.0109 80.2532 74.2075C79.6147 74.5683 78.8671 74.6852 78.1489 74.5366C77.4308 74.388 76.7908 73.984 76.3478 73.3995L74.4962 75.1839C76.6845 78.2139 75.5399 80.9746 71.8702 81.5133V84.1393C72.5809 84.1278 73.2791 84.3269 73.877 84.7114C74.4748 85.0959 74.9456 85.6487 75.23 86.3002C75.5143 86.9517 75.5995 87.6727 75.4749 88.3725C75.3503 89.0723 75.0216 89.7197 74.5299 90.233L76.2805 92.1183C79.2769 89.93 82.0376 91.0746 82.5762 94.7106H85.2022C85.087 93.9736 85.251 93.2201 85.6619 92.5974C86.0729 91.9748 86.7013 91.5278 87.4243 91.344C88.0608 90.9866 88.8039 90.8684 89.5199 91.0103C90.2359 91.1523 90.8776 91.5452 91.3296 92.1183L93.1813 90.3677C90.9929 87.3377 92.1376 84.5433 95.8073 84.0383V81.4459C95.0688 81.537 94.3222 81.3593 93.7039 80.9451C93.0857 80.5309 92.6372 79.908 92.4406 79.1903C92.0799 78.5517 91.9629 77.804 92.1115 77.0859C92.2601 76.3677 92.6642 75.7278 93.2487 75.2849L91.4643 73.4332C88.4343 75.5879 85.6399 74.4433 85.1349 70.8072L82.5089 70.8408Z" fill="black"/>
<path d="M65.1704 69.4596H67.7627C67.9493 69.4449 68.1368 69.4704 68.3127 69.5341C68.4887 69.5978 68.649 69.6984 68.7829 69.8291C68.9168 69.9598 69.0212 70.1176 69.0891 70.2919C69.1571 70.4663 69.187 70.6531 69.1768 70.84V76.0247C69.1865 76.2129 69.1565 76.4011 69.0888 76.577C69.0212 76.753 68.9174 76.9128 68.7841 77.0461C68.6508 77.1793 68.491 77.2832 68.3151 77.3508C68.1391 77.4184 67.951 77.4484 67.7627 77.4387H62.578C62.3898 77.4484 62.2016 77.4184 62.0257 77.3508C61.8497 77.2832 61.6899 77.1793 61.5566 77.0461C61.4233 76.9128 61.3195 76.753 61.2519 76.577C61.1843 76.4011 61.1544 76.2129 61.1641 76.0247V70.9747C61.1539 70.7878 61.1838 70.601 61.2517 70.4266C61.3196 70.2523 61.424 70.0945 61.5579 69.9638C61.6918 69.8331 61.8521 69.7324 62.028 69.6687C62.204 69.605 62.3915 69.5796 62.578 69.5943L65.1704 69.4596ZM63.8911 72.153V74.7453H66.4497V72.153H63.8911Z" fill="black"/>
<path d="M77.1895 82.7581C77.1895 81.4263 77.5844 80.1245 78.3243 79.0172C79.0641 77.9099 80.1158 77.0469 81.3461 76.5373C82.5765 76.0276 83.9304 75.8942 85.2365 76.154C86.5427 76.4138 87.7424 77.0551 88.6841 77.9968C89.6257 78.9385 90.267 80.1383 90.5269 81.4445C90.7867 82.7506 90.6534 84.1045 90.1437 85.3349C89.6341 86.5652 88.771 87.6168 87.6637 88.3566C86.5564 89.0965 85.2546 89.4914 83.9228 89.4914C82.137 89.4914 80.4244 88.782 79.1616 87.5193C77.8989 86.2565 77.1895 84.5439 77.1895 82.7581ZM87.8282 82.7581C87.8416 81.9615 87.6172 81.179 87.1837 80.5106C86.7502 79.8423 86.1272 79.3184 85.3944 79.0058C84.6617 78.6932 83.8523 78.6061 83.0699 78.7558C82.2874 78.9054 81.5673 79.285 81.0016 79.8459C80.4359 80.4068 80.0503 81.1237 79.894 81.9049C79.7377 82.686 79.8178 83.496 80.1241 84.2314C80.4304 84.9668 80.9491 85.5942 81.6138 86.0334C82.2784 86.4726 83.0589 86.7037 83.8555 86.6971C84.8837 86.6894 85.8696 86.2866 86.6091 85.5722C87.3485 84.8578 87.785 83.8864 87.8282 82.859V82.7581Z" fill="black"/>
</g>
<defs>
<filter id="filter0_dd_2673_1949" x="0" y="0" width="149" height="149" filterUnits="userSpaceOnUse" color-interpolation-filters="sRGB">
<feFlood flood-opacity="0" result="BackgroundImageFix"/>
<feColorMatrix in="SourceAlpha" type="matrix" values="0 0 0 0 0 0 0 0 0 0 0 0 0 0 0 0 0 0 127 0" result="hardAlpha"/>
<feOffset dy="1"/>
<feGaussianBlur stdDeviation="1.5"/>
<feComposite in2="hardAlpha" operator="out"/>
<feColorMatrix type="matrix" values="0 0 0 0 0 0 0 0 0 0 0 0 0 0 0 0 0 0 0.1 0"/>
<feBlend mode="normal" in2="BackgroundImageFix" result="effect1_dropShadow_2673_1949"/>
<feColorMatrix in="SourceAlpha" type="matrix" values="0 0 0 0 0 0 0 0 0 0 0 0 0 0 0 0 0 0 127 0" result="hardAlpha"/>
<feOffset dy="1"/>
<feGaussianBlur stdDeviation="1"/>
<feComposite in2="hardAlpha" operator="out"/>
<feColorMatrix type="matrix" values="0 0 0 0 0 0 0 0 0 0 0 0 0 0 0 0 0 0 0.06 0"/>
<feBlend mode="normal" in2="effect1_dropShadow_2673_1949" result="effect2_dropShadow_2673_1949"/>
<feBlend mode="normal" in="SourceGraphic" in2="effect2_dropShadow_2673_1949" result="shape"/>
</filter>
</defs>
</svg>
