<svg width="203" height="203" viewBox="0 0 203 203" fill="none" xmlns="http://www.w3.org/2000/svg">
<g filter="url(#filter0_dd_2700_9777)">
<rect width="143" height="143" transform="translate(30 23)" fill="#31D0BC"/>
<path d="M100.481 70.4C100.481 73.136 100.109 75.488 99.3652 77.456C98.6212 79.424 97.5172 80.936 96.0532 81.992C94.5892 83.024 92.7652 83.54 90.5812 83.54C88.3972 83.54 86.5732 83.024 85.1092 81.992C83.6452 80.936 82.5412 79.424 81.7972 77.456C81.0532 75.488 80.6812 73.136 80.6812 70.4C80.6812 67.64 81.0532 65.288 81.7972 63.344C82.5412 61.376 83.6452 59.876 85.1092 58.844C86.5732 57.788 88.3972 57.26 90.5812 57.26C92.7652 57.26 94.5892 57.788 96.0532 58.844C97.5172 59.876 98.6212 61.376 99.3652 63.344C100.109 65.288 100.481 67.64 100.481 70.4ZM94.5412 70.4C94.5412 66.224 94.2292 63.236 93.6052 61.436C92.9812 59.612 91.9732 58.7 90.5812 58.7C89.1892 58.7 88.1812 59.612 87.5572 61.436C86.9332 63.236 86.6212 66.224 86.6212 70.4C86.6212 74.576 86.9332 77.576 87.5572 79.4C88.1812 81.2 89.1892 82.1 90.5812 82.1C91.9732 82.1 92.9812 81.2 93.6052 79.4C94.2292 77.576 94.5412 74.576 94.5412 70.4ZM121.619 83H108.011C107.363 83 106.727 83 106.103 83C105.503 83 104.855 83.024 104.159 83.072C104.063 82.424 104.063 81.788 104.159 81.164L110.171 76.088C111.779 74.72 112.955 73.328 113.699 71.912C114.467 70.496 114.959 69.128 115.175 67.808C115.391 66.488 115.499 65.312 115.499 64.28C115.499 62.384 115.247 60.98 114.743 60.068C114.263 59.156 113.567 58.7 112.655 58.7C111.767 58.7 111.083 59.144 110.603 60.032C110.147 60.92 109.919 62.144 109.919 63.704C109.919 64.352 109.943 64.892 109.991 65.324C110.039 65.732 110.111 66.104 110.207 66.44H104.627C104.531 66.08 104.459 65.72 104.411 65.36C104.363 64.976 104.339 64.58 104.339 64.172C104.339 62.756 104.687 61.532 105.383 60.5C106.103 59.468 107.111 58.676 108.407 58.124C109.703 57.548 111.239 57.26 113.015 57.26C115.775 57.26 117.863 57.8 119.279 58.88C120.719 59.96 121.439 61.556 121.439 63.668C121.439 65.348 121.043 66.884 120.251 68.276C119.459 69.644 118.331 71.012 116.867 72.38C115.403 73.748 113.663 75.236 111.647 76.844L109.811 78.32L118.199 77.96C119.111 77.912 119.855 77.648 120.431 77.168C121.007 76.688 121.343 76.004 121.439 75.116C121.823 75.02 122.207 75.02 122.591 75.116L121.619 83Z" fill="#FDFDFD"/>
<path d="M73.7485 130.504C72.2845 130.504 70.8685 130.372 69.5005 130.108C68.1325 129.844 66.9085 129.46 65.8285 128.956V121.9C66.2125 121.828 66.5965 121.828 66.9805 121.9C67.1725 123.34 67.5925 124.6 68.2405 125.68C68.9125 126.736 69.7525 127.564 70.7605 128.164C71.7925 128.764 72.9205 129.064 74.1445 129.064C75.8725 129.064 77.1925 128.68 78.1045 127.912C79.0165 127.12 79.4725 126.124 79.4725 124.924C79.4725 123.988 79.2325 123.22 78.7525 122.62C78.2725 122.02 77.6365 121.516 76.8445 121.108C76.0765 120.676 75.2245 120.28 74.2885 119.92C73.3525 119.56 72.4045 119.164 71.4445 118.732C70.5085 118.3 69.6445 117.772 68.8525 117.148C68.0845 116.524 67.4605 115.744 66.9805 114.808C66.5005 113.848 66.2605 112.672 66.2605 111.28C66.2605 109.768 66.6325 108.496 67.3765 107.464C68.1445 106.408 69.2005 105.616 70.5445 105.088C71.9125 104.56 73.4845 104.296 75.2605 104.296C76.7245 104.296 78.0085 104.428 79.1125 104.692C80.2405 104.956 81.2485 105.328 82.1365 105.808V112.36C81.7525 112.432 81.3685 112.432 80.9845 112.36C80.7205 110.296 80.0965 108.676 79.1125 107.5C78.1525 106.324 76.7965 105.736 75.0445 105.736C73.6045 105.736 72.4645 106.048 71.6245 106.672C70.8085 107.272 70.4005 108.208 70.4005 109.48C70.4005 110.272 70.6405 110.932 71.1205 111.46C71.6245 111.988 72.2725 112.444 73.0645 112.828C73.8805 113.212 74.7685 113.584 75.7285 113.944C76.7125 114.28 77.6845 114.664 78.6445 115.096C79.6045 115.528 80.4805 116.068 81.2725 116.716C82.0885 117.34 82.7365 118.12 83.2165 119.056C83.7205 119.992 83.9725 121.156 83.9725 122.548C83.9725 124.132 83.5525 125.524 82.7125 126.724C81.8965 127.9 80.7205 128.824 79.1845 129.496C77.6725 130.168 75.8605 130.504 73.7485 130.504ZM93.6416 130.54C92.0336 130.54 90.7856 130.252 89.8976 129.676C89.0096 129.076 88.5656 127.936 88.5656 126.256V118.84C88.5656 118 88.5536 117.16 88.5296 116.32C88.5296 115.48 88.5056 114.64 88.4576 113.8C88.4096 112.96 88.3256 112.12 88.2056 111.28C88.7336 111.16 89.2856 110.956 89.8616 110.668C90.4376 110.356 90.9536 109.996 91.4096 109.588C91.8656 109.156 92.1536 108.7 92.2736 108.22C92.6576 108.148 93.0416 108.148 93.4256 108.22C93.3296 109.972 93.2696 111.736 93.2456 113.512C93.2456 115.288 93.2456 117.064 93.2456 118.84V126.256C93.2456 127.144 93.3896 127.756 93.6776 128.092C93.9656 128.404 94.3736 128.56 94.9016 128.56C95.2376 128.56 95.5856 128.476 95.9456 128.308C96.3056 128.14 96.6416 127.888 96.9536 127.552C97.1456 127.672 97.3136 127.828 97.4576 128.02C97.6256 128.188 97.7696 128.368 97.8896 128.56C97.4576 129.088 96.9056 129.556 96.2336 129.964C95.5616 130.348 94.6976 130.54 93.6416 130.54ZM86.0456 115.06C85.9496 114.508 85.9496 113.968 86.0456 113.44H97.3856C97.4816 113.968 97.4816 114.508 97.3856 115.06H86.0456ZM108.566 130.54C106.79 130.54 105.218 130.204 103.85 129.532C102.506 128.86 101.45 127.864 100.682 126.544C99.9138 125.224 99.5298 123.616 99.5298 121.72C99.5298 119.872 99.9018 118.3 100.646 117.004C101.39 115.684 102.41 114.676 103.706 113.98C105.002 113.26 106.49 112.9 108.17 112.9C109.61 112.9 110.93 113.188 112.13 113.764C113.33 114.316 114.29 115.216 115.01 116.464C115.73 117.688 116.09 119.32 116.09 121.36C115.298 121.192 114.494 121.096 113.678 121.072C112.886 121.024 111.962 121 110.906 121H103.382V119.74H110.834C110.834 118.084 110.63 116.74 110.222 115.708C109.838 114.676 109.094 114.16 107.99 114.16C107.102 114.16 106.406 114.496 105.902 115.168C105.422 115.816 105.074 116.704 104.858 117.832C104.666 118.96 104.57 120.256 104.57 121.72C104.57 123.784 104.954 125.44 105.722 126.688C106.514 127.936 107.726 128.56 109.358 128.56C110.414 128.56 111.386 128.344 112.274 127.912C113.162 127.456 114.05 126.592 114.938 125.32C115.202 125.44 115.418 125.584 115.586 125.752C115.754 125.896 115.922 126.064 116.09 126.256C115.058 127.744 113.978 128.836 112.85 129.532C111.746 130.204 110.318 130.54 108.566 130.54ZM118.395 137.632C118.299 137.176 118.299 136.732 118.395 136.3H120.267C120.387 135.484 120.471 134.62 120.519 133.708C120.591 132.796 120.627 131.8 120.627 130.72V120.28C120.627 118.144 120.507 116.308 120.267 114.772H118.575C118.479 114.316 118.479 113.872 118.575 113.44C119.967 113.44 121.155 113.404 122.139 113.332C123.123 113.236 124.179 113.092 125.307 112.9C125.211 113.212 125.139 113.644 125.091 114.196C125.043 114.724 124.995 115.252 124.947 115.78L125.307 117.4V130.72C125.307 131.8 125.331 132.796 125.379 133.708C125.451 134.62 125.547 135.484 125.667 136.3H128.259C128.355 136.732 128.355 137.176 128.259 137.632C127.443 137.584 126.519 137.56 125.487 137.56C124.455 137.56 123.615 137.56 122.967 137.56C122.319 137.56 121.599 137.56 120.807 137.56C120.039 137.56 119.235 137.584 118.395 137.632ZM130.347 112.9C131.763 112.9 133.023 113.212 134.127 113.836C135.231 114.436 136.107 115.372 136.755 116.644C137.403 117.916 137.727 119.524 137.727 121.468C137.727 123.46 137.343 125.128 136.575 126.472C135.831 127.816 134.799 128.836 133.479 129.532C132.159 130.204 130.623 130.54 128.871 130.54C127.143 130.54 125.751 130.288 124.695 129.784C123.639 129.256 122.679 128.584 121.815 127.768L125.307 124.528C125.307 125.776 125.499 126.736 125.883 127.408C126.267 128.056 126.723 128.5 127.251 128.74C127.779 128.98 128.235 129.1 128.619 129.1C129.771 129.1 130.707 128.488 131.427 127.264C132.147 126.016 132.507 124.144 132.507 121.648C132.507 119.392 132.207 117.676 131.607 116.5C131.031 115.3 130.179 114.7 129.051 114.7C128.379 114.7 127.731 114.928 127.107 115.384C126.507 115.84 125.907 116.524 125.307 117.436L124.947 115.78C125.475 114.94 126.195 114.256 127.107 113.728C128.019 113.176 129.099 112.9 130.347 112.9Z" fill="#FDFDFD"/>
</g>
<defs>
<filter id="filter0_dd_2700_9777" x="0" y="0" width="203" height="203" filterUnits="userSpaceOnUse" color-interpolation-filters="sRGB">
<feFlood flood-opacity="0" result="BackgroundImageFix"/>
<feColorMatrix in="SourceAlpha" type="matrix" values="0 0 0 0 0 0 0 0 0 0 0 0 0 0 0 0 0 0 127 0" result="hardAlpha"/>
<feOffset dy="7"/>
<feGaussianBlur stdDeviation="15"/>
<feComposite in2="hardAlpha" operator="out"/>
<feColorMatrix type="matrix" values="0 0 0 0 0 0 0 0 0 0 0 0 0 0 0 0 0 0 0.15 0"/>
<feBlend mode="normal" in2="BackgroundImageFix" result="effect1_dropShadow_2700_9777"/>
<feColorMatrix in="SourceAlpha" type="matrix" values="0 0 0 0 0 0 0 0 0 0 0 0 0 0 0 0 0 0 127 0" result="hardAlpha"/>
<feOffset dy="8"/>
<feGaussianBlur stdDeviation="7.5"/>
<feComposite in2="hardAlpha" operator="out"/>
<feColorMatrix type="matrix" values="0 0 0 0 0 0 0 0 0 0 0 0 0 0 0 0 0 0 0.14 0"/>
<feBlend mode="normal" in2="effect1_dropShadow_2700_9777" result="effect2_dropShadow_2700_9777"/>
<feBlend mode="normal" in="SourceGraphic" in2="effect2_dropShadow_2700_9777" result="shape"/>
</filter>
</defs>
</svg>
