<svg width="149" height="149" viewBox="0 0 149 149" fill="none" xmlns="http://www.w3.org/2000/svg">
<g filter="url(#filter0_dd_2673_1843)">
<rect x="3" y="2" width="143" height="143" rx="4" fill="#F4F4F4" shape-rendering="crispEdges"/>
<path d="M81.3106 39.9137C83.1934 39.9137 85.0762 39.9137 86.959 39.9137C87.5295 39.8758 88.0989 40.0025 88.5996 40.2787C89.1002 40.5549 89.511 40.969 89.7832 41.4719C90.6272 42.8677 91.6011 44.1987 92.4127 45.5946C92.8035 46.2674 93.0262 47.0247 93.0619 47.802C93.0619 49.2628 93.0619 50.7561 93.0619 52.2169C93.13 52.6187 93.2732 53.0042 93.484 53.353C93.7286 53.7805 93.9142 54.2392 94.0358 54.7165C94.1009 55.3098 94.1009 55.9085 94.0358 56.5019C94.0449 56.7516 94.0023 57.0005 93.9109 57.233C93.8195 57.4656 93.6813 57.6768 93.5046 57.8534C93.3279 58.0301 93.1167 58.1685 92.8841 58.2599C92.6516 58.3513 92.4027 58.3938 92.153 58.3847H91.0168C90.4295 58.2918 89.8285 58.3406 89.2638 58.5269C88.6992 58.7133 88.1873 59.0318 87.7706 59.456C87.3411 59.8275 86.8415 60.1092 86.3014 60.2846C85.7613 60.46 85.1916 60.5253 84.6258 60.4769C84.06 60.4285 83.5096 60.2673 83.0071 60.0027C82.5047 59.7382 82.0603 59.3756 81.7001 58.9365C81.5561 58.7499 81.368 58.6018 81.1527 58.5055C80.9375 58.4092 80.7018 58.3677 80.4666 58.3847H72.1237C71.7448 58.4112 71.3878 58.5724 71.1174 58.8392C70.6908 59.3337 70.1626 59.7304 69.5688 60.0023C68.975 60.2743 68.3295 60.415 67.6764 60.415C67.0233 60.415 66.3778 60.2743 65.784 60.0023C65.1902 59.7304 64.6621 59.3337 64.2354 58.8392C63.9634 58.5747 63.6074 58.4139 63.2291 58.3847C62.4825 58.3847 61.7033 58.3847 60.9567 58.3847C60.7073 58.4026 60.4569 58.3688 60.2211 58.2854C59.9854 58.2021 59.7693 58.071 59.5865 57.9004C59.4037 57.7298 59.258 57.5233 59.1586 57.2938C59.0593 57.0644 59.0083 56.8169 59.009 56.5668C59.009 55.3982 58.6844 54.1971 59.6582 53.3206C59.8206 53.3206 59.6582 52.8012 59.6582 52.5415V36.3103C59.6582 34.9794 59.9829 34.6548 61.3138 34.6548H79.2655C80.6938 34.6548 80.986 34.9794 80.986 36.4402V39.9137C81.0932 39.9347 81.2034 39.9347 81.3106 39.9137ZM62.1903 36.6674V52.7363C63.3148 52.8975 64.4605 52.6683 65.4365 52.087C66.0726 51.6077 66.8475 51.3485 67.6439 51.3485C68.4404 51.3485 69.2153 51.6077 69.8514 52.087C70.8202 52.6924 71.9597 52.9659 73.0977 52.8661H79.0382V36.7324L62.1903 36.6674ZM90.7895 52.7038V47.7046H84.4919C83.3881 47.7046 82.9986 47.3151 82.9986 46.2113V42.2509H81.2456V52.9635C81.7001 52.7363 82.0572 52.6389 82.3493 52.4441C83.0415 51.8304 83.9187 51.4652 84.8419 51.4064C85.765 51.3476 86.6815 51.5985 87.4459 52.1195C88.4403 52.7457 89.633 52.9773 90.7895 52.7687V52.7038ZM67.8387 58.2548C68.2803 58.2484 68.7101 58.1116 69.0742 57.8617C69.4382 57.6117 69.7203 57.2597 69.8848 56.8499C70.0494 56.4401 70.0892 55.9907 69.9991 55.5584C69.9091 55.1261 69.6932 54.73 69.3787 54.42C69.0642 54.11 68.6651 53.8998 68.2315 53.816C67.7979 53.7322 67.3491 53.7784 66.9417 53.9488C66.5343 54.1193 66.1865 54.4064 65.9418 54.774C65.697 55.1416 65.5664 55.5733 65.5664 56.0149C65.5749 56.612 65.8181 57.1816 66.2433 57.6008C66.6686 58.02 67.2416 58.2549 67.8387 58.2548ZM85.1411 58.2548C85.431 58.2591 85.7189 58.2063 85.9884 58.0993C86.2578 57.9923 86.5036 57.8333 86.7115 57.6313C86.9195 57.4293 87.0858 57.1884 87.2006 56.9222C87.3155 56.656 87.3768 56.3698 87.381 56.0799C87.4191 55.7653 87.39 55.4462 87.2956 55.1437C87.2013 54.8412 87.0439 54.5622 86.8337 54.3251C86.6235 54.0879 86.3654 53.8981 86.0764 53.768C85.7875 53.638 85.4743 53.5708 85.1574 53.5708C84.8405 53.5708 84.5272 53.638 84.2382 53.768C83.9493 53.8981 83.6912 54.0879 83.4811 54.3251C83.2709 54.5622 83.1134 54.8412 83.019 55.1437C82.9247 55.4462 82.8957 55.7653 82.9337 56.0799C82.9423 56.6597 83.1786 57.2128 83.5916 57.6198C84.0047 58.0268 84.5613 58.2549 85.1411 58.2548ZM85.3034 45.2699H89.5885C88.9392 44.2636 88.3874 43.3547 87.7706 42.4782C87.7223 42.3853 87.6532 42.3047 87.5688 42.2428C87.4843 42.1809 87.3868 42.1392 87.2837 42.1211H85.3034V45.2699ZM80.7262 55.0086H72.2861V55.95H80.5639L80.7262 55.0086ZM91.8284 55.0086H89.6209V55.95H91.7635L91.8284 55.0086ZM61.4112 55.95H63.2616V55.0086H61.3462L61.4112 55.95Z" fill="black"/>
<path d="M41.8365 92.0467L48.329 90.2937C49.1081 90.099 49.7248 90.2937 49.8871 91.0079C49.9238 91.364 49.9238 91.723 49.8871 92.0791L54.724 90.7806L56.5743 90.2613C56.7543 90.1947 56.9482 90.1748 57.138 90.2034C57.3277 90.232 57.5071 90.3082 57.6595 90.4249C57.8118 90.5416 57.9321 90.6949 58.0092 90.8707C58.0862 91.0464 58.1174 91.2388 58.1 91.4299V102.986C58.1139 103.142 58.0946 103.299 58.0433 103.447C57.992 103.594 57.9099 103.729 57.8025 103.843C57.6951 103.956 57.5648 104.046 57.4202 104.105C57.2757 104.165 57.1202 104.193 56.9639 104.188H36.2854C34.7597 104.188 34.5 103.928 34.5 102.402V85.6841C34.5 84.0285 35.0519 83.4442 36.7399 83.4442H39.5641C39.8404 83.4053 40.1219 83.4317 40.3861 83.5212C40.6503 83.6108 40.8899 83.761 41.0856 83.9598C41.2813 84.1587 41.4275 84.4006 41.5129 84.6662C41.5982 84.9318 41.6201 85.2137 41.5768 85.4893C41.5768 87.5993 41.5768 89.7419 41.5768 91.9818C41.7715 91.8844 41.804 91.9168 41.8365 92.0467ZM47.7122 101.785V92.8258L41.7715 94.4164V101.883L47.7122 101.785ZM55.9576 92.7284L50.0495 94.319V101.785H55.9576V92.7284ZM36.8373 89.2225V101.883H39.3368V89.2225H36.8373ZM36.8373 85.749V86.8852H39.3693V85.749H36.8373Z" fill="black"/>
<path d="M76.6036 88.0556H75.4674C75.0348 88.0262 74.627 87.8433 74.3174 87.5397C74.0079 87.2361 73.8171 86.8319 73.7794 86.4C73.5846 85.0366 72.7081 84.6795 71.6369 85.4586C71.2922 85.7899 70.8327 85.9749 70.3547 85.9749C69.8766 85.9749 69.417 85.7899 69.0723 85.4586C68.5826 85.0069 68.1167 84.5302 67.6765 84.0303C67.5165 83.8705 67.3896 83.6807 67.303 83.4718C67.2164 83.2629 67.1718 83.039 67.1718 82.8129C67.1718 82.5868 67.2164 82.3629 67.303 82.154C67.3896 81.9451 67.5165 81.7554 67.6765 81.5956C68.488 80.4594 68.1634 79.6154 66.7675 79.3882C66.5371 79.3717 66.3122 79.3099 66.1058 79.2062C65.8993 79.1026 65.7154 78.9592 65.5646 78.7842C65.4137 78.6092 65.299 78.4062 65.2269 78.1867C65.1548 77.9672 65.1267 77.7357 65.1444 77.5053C65.1444 76.8236 65.1444 76.1095 65.1444 75.4278C65.1425 74.9896 65.3048 74.5667 65.5992 74.2422C65.8937 73.9178 66.2988 73.7153 66.7351 73.6748C68.1309 73.48 68.488 72.636 67.6765 71.4998C67.3701 71.1452 67.2154 70.6844 67.2457 70.2168C67.2761 69.7491 67.4891 69.3122 67.8388 69.0002C68.2907 68.5108 68.7674 68.0449 69.2671 67.6043C69.5884 67.291 70.0194 67.1157 70.4682 67.1157C70.917 67.1157 71.3481 67.291 71.6694 67.6043C72.9029 68.4484 73.682 68.1237 73.9093 66.6629C73.9634 66.2321 74.1699 65.835 74.4914 65.5432C74.8129 65.2515 75.2282 65.0844 75.6622 65.0723C76.4088 65.0723 77.123 65.0723 77.8372 65.0723C78.2753 65.0704 78.6983 65.2326 79.0227 65.527C79.3472 65.8215 79.5496 66.2267 79.5902 66.6629C79.8823 68.1237 80.6289 68.4484 81.83 67.6043C82.1533 67.3078 82.5762 67.1433 83.0149 67.1433C83.4537 67.1433 83.8764 67.3078 84.1998 67.6043C84.7516 68.0913 85.2711 68.6107 85.758 69.1301C86.0591 69.464 86.2258 69.8977 86.2258 70.3474C86.2258 70.7971 86.0591 71.2308 85.758 71.5647C84.914 72.7334 85.2711 73.5449 86.6669 73.7397C87.1176 73.7874 87.5351 73.9988 87.8403 74.3339C88.1454 74.669 88.317 75.1044 88.3224 75.5576C88.3224 76.2393 88.3224 76.9535 88.3224 77.6352C88.3243 78.0905 88.1553 78.5299 87.8487 78.8665C87.5421 79.2031 87.1204 79.4124 86.6669 79.4531C85.2711 79.7128 84.914 80.4919 85.758 81.628C86.066 81.9585 86.2373 82.3936 86.2373 82.8454C86.2373 83.2972 86.066 83.7322 85.758 84.0627C85.2715 84.614 84.7511 85.1344 84.1998 85.6209C83.87 85.9043 83.4497 86.0601 83.0149 86.0601C82.5802 86.0601 82.1597 85.9043 81.83 85.6209C80.6289 84.7769 79.8823 85.069 79.5902 86.5623C79.5502 86.993 79.3523 87.3937 79.0347 87.6873C78.7171 87.9809 78.3022 88.1468 77.8697 88.153L76.6036 88.0556ZM85.9852 75.8498C85.3869 75.7409 84.8253 75.4837 84.352 75.1016C83.8788 74.7195 83.509 74.2249 83.2765 73.6628C83.0439 73.1008 82.9561 72.4895 83.021 71.8847C83.0859 71.28 83.3014 70.7012 83.648 70.2013L82.8688 69.3573C80.2718 70.7532 78.4539 70.0066 77.1879 67.1174C76.4088 66.8902 76.0193 67.1174 75.6947 67.8965C75.3848 68.5724 74.8895 69.1465 74.2663 69.5521C73.7165 69.9435 73.0585 70.1539 72.3836 70.1539C71.7086 70.1539 71.0505 69.9435 70.5007 69.5521L69.5917 70.3636C70.7928 72.6685 70.2086 74.9084 68.131 75.655C67.2221 75.9796 67.1246 76.4341 67.3518 77.1807C70.0787 78.0247 70.8253 79.8426 69.6566 82.7642L70.3708 83.6407L71.085 83.2836C71.5052 83.0492 71.9723 82.9112 72.4524 82.8795C72.9325 82.8478 73.4136 82.9232 73.861 83.1003C74.3084 83.2774 74.7109 83.5517 75.0392 83.9035C75.3676 84.2552 75.6136 84.6755 75.7596 85.134C76.0517 86.0429 76.5062 86.0754 77.2204 85.913C77.3186 85.3159 77.567 84.7536 77.9421 84.2788C78.3172 83.804 78.8069 83.4323 79.3651 83.1986C79.9233 82.965 80.5317 82.877 81.1332 82.9429C81.7348 83.0089 82.3096 83.2267 82.8039 83.5758C83.4207 83.1862 83.8103 82.8291 83.3233 81.9851C83.1315 81.5964 83.0317 81.1688 83.0317 80.7353C83.0317 80.3019 83.1315 79.8742 83.3233 79.4855C83.541 78.8874 83.9146 78.3583 84.4054 77.9531C84.8963 77.5479 85.4865 77.2812 86.115 77.1807L85.9852 75.8498Z" fill="black"/>
<path d="M104.683 94.5145C105.53 94.7411 106.365 95.012 107.183 95.326C108.896 96.0122 110.364 97.1949 111.4 98.722C112.435 100.249 112.99 102.051 112.994 103.896C113.052 104.569 112.899 105.244 112.555 105.826C112.212 106.407 111.696 106.868 111.078 107.142C109.657 107.927 108.087 108.403 106.469 108.538C103.637 108.957 100.749 108.769 97.9962 107.986C97.2772 107.903 96.5891 107.647 95.9907 107.24C95.3922 106.833 94.9013 106.287 94.5599 105.649C94.2185 105.011 94.0368 104.3 94.0303 103.576C94.0239 102.852 94.1928 102.138 94.5227 101.494C95.017 99.8457 95.9581 98.3667 97.2416 97.2207C98.5251 96.0747 100.101 95.3066 101.794 95.0014H102.541C101.197 94.6535 100.036 93.806 99.2947 92.6316C98.9346 91.9997 98.7177 91.2965 98.6593 90.5715C98.6009 89.8466 98.7025 89.1177 98.9567 88.4363C99.211 87.7549 99.6118 87.1377 100.131 86.6283C100.65 86.1188 101.274 85.7295 101.96 85.488C102.646 85.2464 103.377 85.1585 104.101 85.2304C104.825 85.3022 105.524 85.5322 106.149 85.9039C106.774 86.2757 107.31 86.7802 107.718 87.3818C108.127 87.9833 108.399 88.6673 108.514 89.3854C108.552 90.548 108.193 91.6889 107.497 92.6209C106.801 93.5529 105.809 94.2206 104.683 94.5145ZM103.677 106.331C104.423 106.391 105.172 106.391 105.917 106.331C107.215 106.039 108.514 105.649 109.78 105.227C110.114 105.108 110.392 104.87 110.56 104.558C110.728 104.246 110.774 103.883 110.689 103.539C110.569 101.776 109.801 100.119 108.535 98.8863C107.268 97.6537 105.591 96.932 103.825 96.8596C102.059 96.7872 100.329 97.3692 98.9657 98.494C97.6025 99.6187 96.7023 101.207 96.438 102.955C96.1783 104.415 96.438 104.935 97.8339 105.519C99.7127 106.157 101.696 106.432 103.677 106.331ZM103.677 92.307C104.032 92.3157 104.385 92.2532 104.716 92.1233C105.046 91.9935 105.347 91.7987 105.601 91.5507C105.856 91.3026 106.057 91.0063 106.195 90.679C106.333 90.3517 106.404 90.0002 106.404 89.6451C106.417 89.1032 106.268 88.5698 105.976 88.1129C105.685 87.656 105.263 87.2964 104.766 87.08C104.269 86.8637 103.719 86.8003 103.186 86.8981C102.653 86.9959 102.161 87.2503 101.773 87.629C101.385 88.0076 101.119 88.4932 101.008 89.0239C100.898 89.5545 100.948 90.1061 101.152 90.6081C101.357 91.1102 101.706 91.54 102.156 91.8426C102.605 92.1452 103.135 92.3069 103.677 92.307Z" fill="black"/>
<path d="M50.6337 57.9616C49.0479 60.1812 47.7702 62.6055 46.8356 65.1682C44.7896 70.5479 44.24 76.3815 45.2449 82.0486C45.4072 82.9576 45.2449 83.5419 44.336 83.6718C43.427 83.8016 43.1674 83.3471 43.0375 82.4706C41.4646 73.7951 43.3146 64.8475 48.199 57.5072L48.8158 56.5982L46.511 56.8904C45.6345 56.8904 45.0826 56.6307 45.0177 55.949C44.9527 55.2673 45.3748 54.7479 46.2189 54.6505L50.7636 54.0337C52.062 54.0337 52.4515 54.0337 52.6138 55.4296C52.7761 56.8254 53.0035 58.481 53.1982 60.0068C53.1982 60.9806 52.7762 61.6299 51.9322 61.4676C51.6766 61.4364 51.4408 61.3143 51.2679 61.1235C51.095 60.9328 50.9966 60.6861 50.9907 60.4288C50.8609 59.6821 50.7635 58.9355 50.6337 57.9616Z" fill="black"/>
<path d="M64.6898 108.441C65.0469 109.252 65.3391 109.967 65.5988 110.648C65.6797 110.791 65.7289 110.949 65.7429 111.112C65.7569 111.276 65.7353 111.44 65.6798 111.594C65.6243 111.748 65.5362 111.889 65.4213 112.006C65.3065 112.123 65.1677 112.213 65.0145 112.271C64.8678 112.327 64.7112 112.351 64.5546 112.343C64.398 112.335 64.2447 112.295 64.1044 112.225C63.9642 112.155 63.84 112.056 63.7396 111.936C63.6392 111.815 63.5649 111.675 63.5212 111.525L61.5735 106.818C61.4944 106.669 61.4494 106.504 61.4417 106.336C61.4341 106.168 61.4639 106 61.5292 105.844C61.5945 105.689 61.6934 105.55 61.819 105.438C61.9445 105.325 62.0935 105.242 62.2552 105.195L66.9622 103.247C67.0999 103.176 67.2506 103.134 67.4051 103.124C67.5595 103.114 67.7145 103.135 67.8604 103.187C68.0063 103.238 68.1401 103.319 68.2536 103.425C68.3671 103.53 68.4579 103.657 68.5205 103.799C68.8126 104.416 68.5205 105 67.8063 105.357L65.7287 106.201V106.428C67.3193 106.85 68.9749 107.337 70.5006 107.662C77.1431 108.984 84.0342 108.154 90.1727 105.292C91.1791 104.838 91.9581 105.292 92.088 105.974C92.1407 106.24 92.0938 106.516 91.9561 106.749C91.8184 106.983 91.5996 107.157 91.3414 107.24C88.1034 108.777 84.6402 109.785 81.0833 110.226C75.7248 110.934 70.2749 110.367 65.1768 108.571L64.6898 108.441Z" fill="black"/>
<path d="M110.656 79.647L112.474 78.2512C113.188 77.7642 113.838 77.7967 114.26 78.2512C114.682 78.7056 114.552 79.4522 113.838 80.0041L110.007 82.9582C109.228 83.5425 108.709 83.4776 108.092 82.666C107.475 81.8545 106.112 80.134 105.138 78.8355C105.008 78.7258 104.904 78.5891 104.832 78.4349C104.76 78.2807 104.723 78.1128 104.723 77.9428C104.723 77.7728 104.76 77.6048 104.832 77.4507C104.904 77.2965 105.008 77.1598 105.138 77.0501C105.657 76.6605 106.306 76.8228 106.826 77.4396L108.124 79.0952H108.352C108.352 77.5045 108.352 75.8489 108.352 74.3881C107.914 67.5397 105.298 61.0106 100.885 55.7548C100.301 55.0731 100.333 54.3914 100.885 53.9694C101.437 53.5474 102.054 53.6123 102.671 54.3265C107.303 59.8156 110.066 66.638 110.559 73.8038C110.559 75.5568 110.559 77.3422 110.559 79.1276L110.656 79.647Z" fill="black"/>
<path d="M67.8387 55.0088C68.1344 55.0256 68.4119 55.1571 68.6119 55.3754C68.812 55.5937 68.919 55.8815 68.91 56.1774C68.8795 56.4535 68.7517 56.7097 68.5494 56.9C68.3472 57.0904 68.0837 57.2025 67.8063 57.2162C67.6571 57.212 67.5101 57.1784 67.3739 57.1174C67.2377 57.0564 67.1148 56.9692 67.0123 56.8606C66.9098 56.7521 66.8297 56.6244 66.7765 56.4849C66.7234 56.3454 66.6983 56.1968 66.7026 56.0476C66.734 55.7662 66.8664 55.5057 67.0754 55.3147C67.2844 55.1236 67.5556 55.0149 67.8387 55.0088Z" fill="black"/>
<path d="M86.2448 55.9829C86.2723 56.1414 86.2648 56.304 86.2228 56.4594C86.1809 56.6147 86.1054 56.759 86.0018 56.8821C85.8982 57.0052 85.769 57.1042 85.6231 57.1721C85.4772 57.24 85.3183 57.2752 85.1574 57.2752C84.9965 57.2752 84.8374 57.24 84.6916 57.1721C84.5457 57.1042 84.4164 57.0052 84.3128 56.8821C84.2092 56.759 84.1338 56.6147 84.0918 56.4594C84.0498 56.304 84.0423 56.1414 84.0698 55.9829C84.086 55.6985 84.2085 55.4305 84.4129 55.2321C84.6173 55.0337 84.8888 54.9193 85.1736 54.9116C85.4552 54.9198 85.7228 55.0353 85.922 55.2344C86.1211 55.4336 86.2367 55.7014 86.2448 55.9829Z" fill="black"/>
<path d="M45.2775 95.3911H46.9006V97.0142H45.2775V95.3911Z" fill="black"/>
<path d="M44.1737 95.3911C44.4334 97.0792 44.1737 97.2739 42.583 96.9818V95.3911H44.1737Z" fill="black"/>
<path d="M52.4516 95.4229C52.7113 97.1434 52.4517 97.3057 50.861 96.9811C50.8452 96.8191 50.8452 96.656 50.861 96.4941V95.4229H52.4516Z" fill="black"/>
<path d="M53.5553 97.0135V95.4229H55.1784V97.0135H53.5553Z" fill="black"/>
<path d="M76.6361 82.6652C75.3969 82.6652 74.1856 82.2977 73.1553 81.6093C72.125 80.9209 71.3219 79.9424 70.8477 78.7976C70.3735 77.6528 70.2495 76.393 70.4913 75.1777C70.733 73.9624 71.3297 72.846 72.2059 71.9698C73.0821 71.0936 74.1985 70.4969 75.4138 70.2551C76.6291 70.0134 77.8888 70.1375 79.0336 70.6117C80.1784 71.0859 81.157 71.8889 81.8454 72.9192C82.5339 73.9495 82.9013 75.1608 82.9013 76.4C82.9013 77.2227 82.7392 78.0375 82.4244 78.7976C82.1095 79.5577 81.648 80.2484 81.0663 80.8302C80.4845 81.412 79.7937 81.8734 79.0336 82.1883C78.2735 82.5031 77.4588 82.6652 76.6361 82.6652ZM76.6361 72.4071C76.1063 72.3942 75.5793 72.4868 75.0857 72.6797C74.5921 72.8725 74.1418 73.1616 73.7611 73.5303C73.3804 73.8989 73.0768 74.3396 72.8682 74.8267C72.6595 75.3138 72.55 75.8376 72.5458 76.3675C72.5458 76.8919 72.6491 77.4111 72.8497 77.8955C73.0504 78.38 73.3445 78.8201 73.7153 79.1909C74.0861 79.5617 74.5263 79.8558 75.0107 80.0564C75.4951 80.2571 76.0144 80.3604 76.5387 80.3604C77.0631 80.3604 77.5823 80.2571 78.0667 80.0564C78.5511 79.8558 78.9912 79.5617 79.362 79.1909C79.7328 78.8201 80.0269 78.38 80.2276 77.8955C80.4282 77.4111 80.5315 76.8919 80.5315 76.3675C80.5237 75.3363 80.1172 74.3481 79.3971 73.6099C78.677 72.8716 77.6992 72.4406 76.6685 72.4071H76.6361Z" fill="black"/>
</g>
<defs>
<filter id="filter0_dd_2673_1843" x="0" y="0" width="149" height="149" filterUnits="userSpaceOnUse" color-interpolation-filters="sRGB">
<feFlood flood-opacity="0" result="BackgroundImageFix"/>
<feColorMatrix in="SourceAlpha" type="matrix" values="0 0 0 0 0 0 0 0 0 0 0 0 0 0 0 0 0 0 127 0" result="hardAlpha"/>
<feOffset dy="1"/>
<feGaussianBlur stdDeviation="1.5"/>
<feComposite in2="hardAlpha" operator="out"/>
<feColorMatrix type="matrix" values="0 0 0 0 0 0 0 0 0 0 0 0 0 0 0 0 0 0 0.1 0"/>
<feBlend mode="normal" in2="BackgroundImageFix" result="effect1_dropShadow_2673_1843"/>
<feColorMatrix in="SourceAlpha" type="matrix" values="0 0 0 0 0 0 0 0 0 0 0 0 0 0 0 0 0 0 127 0" result="hardAlpha"/>
<feOffset dy="1"/>
<feGaussianBlur stdDeviation="1"/>
<feComposite in2="hardAlpha" operator="out"/>
<feColorMatrix type="matrix" values="0 0 0 0 0 0 0 0 0 0 0 0 0 0 0 0 0 0 0.06 0"/>
<feBlend mode="normal" in2="effect1_dropShadow_2673_1843" result="effect2_dropShadow_2673_1843"/>
<feBlend mode="normal" in="SourceGraphic" in2="effect2_dropShadow_2673_1843" result="shape"/>
</filter>
</defs>
</svg>
